<svg xmlns="http://www.w3.org/2000/svg" xmlns:xlink="http://www.w3.org/1999/xlink" version="1.1" class="marks" width="747" height="464" viewBox="0 0 747 464"><rect width="747" height="464" fill="white"/><g fill="none" stroke-miterlimit="10" transform="translate(64,27)"><g class="mark-group role-frame root" role="graphics-object" aria-roledescription="group mark container"><g transform="translate(0,0)"><path class="background" aria-hidden="true" d="M0.5,0.5h600v400h-600Z" stroke="#ddd"/><g><g class="mark-group role-axis" aria-hidden="true"><g transform="translate(0.5,400.5)"><path class="background" aria-hidden="true" d="M0,0h0v0h0Z" pointer-events="none"/><g><g class="mark-rule role-axis-grid" pointer-events="none"><line transform="translate(0,-400)" x2="0" y2="400" stroke="#ddd" stroke-width="1" opacity="1"/><line transform="translate(42,-400)" x2="0" y2="400" stroke="#ddd" stroke-width="1" opacity="1"/><line transform="translate(84,-400)" x2="0" y2="400" stroke="#ddd" stroke-width="1" opacity="1"/><line transform="translate(126,-400)" x2="0" y2="400" stroke="#ddd" stroke-width="1" opacity="1"/><line transform="translate(168,-400)" x2="0" y2="400" stroke="#ddd" stroke-width="1" opacity="1"/><line transform="translate(210,-400)" x2="0" y2="400" stroke="#ddd" stroke-width="1" opacity="1"/><line transform="translate(252,-400)" x2="0" y2="400" stroke="#ddd" stroke-width="1" opacity="1"/><line transform="translate(294,-400)" x2="0" y2="400" stroke="#ddd" stroke-width="1" opacity="1"/><line transform="translate(336,-400)" x2="0" y2="400" stroke="#ddd" stroke-width="1" opacity="1"/><line transform="translate(378,-400)" x2="0" y2="400" stroke="#ddd" stroke-width="1" opacity="1"/><line transform="translate(420,-400)" x2="0" y2="400" stroke="#ddd" stroke-width="1" opacity="1"/><line transform="translate(462,-400)" x2="0" y2="400" stroke="#ddd" stroke-width="1" opacity="1"/><line transform="translate(503,-400)" x2="0" y2="400" stroke="#ddd" stroke-width="1" opacity="1"/><line transform="translate(545,-400)" x2="0" y2="400" stroke="#ddd" stroke-width="1" opacity="1"/><line transform="translate(587,-400)" x2="0" y2="400" stroke="#ddd" stroke-width="1" opacity="1"/></g></g><path class="foreground" aria-hidden="true" d="" pointer-events="none" display="none"/></g></g><g class="mark-group role-axis" aria-hidden="true"><g transform="translate(0.5,0.5)"><path class="background" aria-hidden="true" d="M0,0h0v0h0Z" pointer-events="none"/><g><g class="mark-rule role-axis-grid" pointer-events="none"><line transform="translate(0,400)" x2="600" y2="0" stroke="#ddd" stroke-width="1" opacity="1"/><line transform="translate(0,360)" x2="600" y2="0" stroke="#ddd" stroke-width="1" opacity="1"/><line transform="translate(0,320)" x2="600" y2="0" stroke="#ddd" stroke-width="1" opacity="1"/><line transform="translate(0,280)" x2="600" y2="0" stroke="#ddd" stroke-width="1" opacity="1"/><line transform="translate(0,240)" x2="600" y2="0" stroke="#ddd" stroke-width="1" opacity="1"/><line transform="translate(0,200)" x2="600" y2="0" stroke="#ddd" stroke-width="1" opacity="1"/><line transform="translate(0,160)" x2="600" y2="0" stroke="#ddd" stroke-width="1" opacity="1"/><line transform="translate(0,120)" x2="600" y2="0" stroke="#ddd" stroke-width="1" opacity="1"/><line transform="translate(0,80)" x2="600" y2="0" stroke="#ddd" stroke-width="1" opacity="1"/><line transform="translate(0,40)" x2="600" y2="0" stroke="#ddd" stroke-width="1" opacity="1"/><line transform="translate(0,0)" x2="600" y2="0" stroke="#ddd" stroke-width="1" opacity="1"/></g></g><path class="foreground" aria-hidden="true" d="" pointer-events="none" display="none"/></g></g><g class="mark-group role-axis" role="graphics-symbol" aria-roledescription="axis" aria-label="X-axis titled 'Year' for a time scale with values from 1880 to 2023"><g transform="translate(0.5,400.5)"><path class="background" aria-hidden="true" d="M0,0h0v0h0Z" pointer-events="none"/><g><g class="mark-rule role-axis-tick" pointer-events="none"><line transform="translate(0,0)" x2="0" y2="5" stroke="#888" stroke-width="1" opacity="1"/><line transform="translate(42,0)" x2="0" y2="5" stroke="#888" stroke-width="1" opacity="1"/><line transform="translate(84,0)" x2="0" y2="5" stroke="#888" stroke-width="1" opacity="1"/><line transform="translate(126,0)" x2="0" y2="5" stroke="#888" stroke-width="1" opacity="1"/><line transform="translate(168,0)" x2="0" y2="5" stroke="#888" stroke-width="1" opacity="1"/><line transform="translate(210,0)" x2="0" y2="5" stroke="#888" stroke-width="1" opacity="1"/><line transform="translate(252,0)" x2="0" y2="5" stroke="#888" stroke-width="1" opacity="1"/><line transform="translate(294,0)" x2="0" y2="5" stroke="#888" stroke-width="1" opacity="1"/><line transform="translate(336,0)" x2="0" y2="5" stroke="#888" stroke-width="1" opacity="1"/><line transform="translate(378,0)" x2="0" y2="5" stroke="#888" stroke-width="1" opacity="1"/><line transform="translate(420,0)" x2="0" y2="5" stroke="#888" stroke-width="1" opacity="1"/><line transform="translate(462,0)" x2="0" y2="5" stroke="#888" stroke-width="1" opacity="1"/><line transform="translate(503,0)" x2="0" y2="5" stroke="#888" stroke-width="1" opacity="1"/><line transform="translate(545,0)" x2="0" y2="5" stroke="#888" stroke-width="1" opacity="1"/><line transform="translate(587,0)" x2="0" y2="5" stroke="#888" stroke-width="1" opacity="1"/></g><g class="mark-text role-axis-label" pointer-events="none"><text text-anchor="start" transform="translate(0,15)" font-family="sans-serif" font-size="10px" fill="#000" opacity="1">1880</text><text text-anchor="middle" transform="translate(41.96437501259494,15)" font-family="sans-serif" font-size="10px" fill="#000" opacity="1">1890</text><text text-anchor="middle" transform="translate(83.9172623780471,15)" font-family="sans-serif" font-size="10px" fill="#000" opacity="1">1900</text><text text-anchor="middle" transform="translate(125.87014974349925,15)" font-family="sans-serif" font-size="10px" fill="#000" opacity="1">1910</text><text text-anchor="middle" transform="translate(167.82303710895144,15)" font-family="sans-serif" font-size="10px" fill="#000" opacity="1">1920</text><text text-anchor="middle" transform="translate(209.78760185386668,15)" font-family="sans-serif" font-size="10px" fill="#000" opacity="1">1930</text><text text-anchor="middle" transform="translate(251.74048921931882,15)" font-family="sans-serif" font-size="10px" fill="#000" opacity="1">1940</text><text text-anchor="middle" transform="translate(293.70486423191375,15)" font-family="sans-serif" font-size="10px" fill="#000" opacity="1">1950</text><text text-anchor="middle" transform="translate(335.6577515973659,15)" font-family="sans-serif" font-size="10px" fill="#000" opacity="1">1960</text><text text-anchor="middle" transform="translate(377.62212660996084,15)" font-family="sans-serif" font-size="10px" fill="#000" opacity="1">1970</text><text text-anchor="middle" transform="translate(419.575013975413,15)" font-family="sans-serif" font-size="10px" fill="#000" opacity="1">1980</text><text text-anchor="middle" transform="translate(461.539388988008,15)" font-family="sans-serif" font-size="10px" fill="#000" opacity="1">1990</text><text text-anchor="middle" transform="translate(503.4922763534601,15)" font-family="sans-serif" font-size="10px" fill="#000" opacity="1">2000</text><text text-anchor="middle" transform="translate(545.4566513660551,15)" font-family="sans-serif" font-size="10px" fill="#000" opacity="1">2010</text><text text-anchor="middle" transform="translate(587.4095387315073,15)" font-family="sans-serif" font-size="10px" fill="#000" opacity="1">2020</text></g><g class="mark-rule role-axis-domain" pointer-events="none"><line transform="translate(0,0)" x2="600" y2="0" stroke="#888" stroke-width="1" opacity="1"/></g><g class="mark-text role-axis-title" pointer-events="none"><text text-anchor="middle" transform="translate(300,30)" font-family="sans-serif" font-size="11px" font-weight="bold" fill="#000" opacity="1">Year</text></g></g><path class="foreground" aria-hidden="true" d="" pointer-events="none" display="none"/></g></g><g class="mark-group role-axis" role="graphics-symbol" aria-roledescription="axis" aria-label="Y-axis titled 'Count' for a linear scale with values from 0 to 100,000"><g transform="translate(0.5,0.5)"><path class="background" aria-hidden="true" d="M0,0h0v0h0Z" pointer-events="none"/><g><g class="mark-rule role-axis-tick" pointer-events="none"><line transform="translate(0,400)" x2="-5" y2="0" stroke="#888" stroke-width="1" opacity="1"/><line transform="translate(0,360)" x2="-5" y2="0" stroke="#888" stroke-width="1" opacity="1"/><line transform="translate(0,320)" x2="-5" y2="0" stroke="#888" stroke-width="1" opacity="1"/><line transform="translate(0,280)" x2="-5" y2="0" stroke="#888" stroke-width="1" opacity="1"/><line transform="translate(0,240)" x2="-5" y2="0" stroke="#888" stroke-width="1" opacity="1"/><line transform="translate(0,200)" x2="-5" y2="0" stroke="#888" stroke-width="1" opacity="1"/><line transform="translate(0,160)" x2="-5" y2="0" stroke="#888" stroke-width="1" opacity="1"/><line transform="translate(0,120)" x2="-5" y2="0" stroke="#888" stroke-width="1" opacity="1"/><line transform="translate(0,80)" x2="-5" y2="0" stroke="#888" stroke-width="1" opacity="1"/><line transform="translate(0,40)" x2="-5" y2="0" stroke="#888" stroke-width="1" opacity="1"/><line transform="translate(0,0)" x2="-5" y2="0" stroke="#888" stroke-width="1" opacity="1"/></g><g class="mark-text role-axis-label" pointer-events="none"><text text-anchor="end" transform="translate(-7,403)" font-family="sans-serif" font-size="10px" fill="#000" opacity="1">0</text><text text-anchor="end" transform="translate(-7,363)" font-family="sans-serif" font-size="10px" fill="#000" opacity="1">10,000</text><text text-anchor="end" transform="translate(-7,323)" font-family="sans-serif" font-size="10px" fill="#000" opacity="1">20,000</text><text text-anchor="end" transform="translate(-7,283)" font-family="sans-serif" font-size="10px" fill="#000" opacity="1">30,000</text><text text-anchor="end" transform="translate(-7,243)" font-family="sans-serif" font-size="10px" fill="#000" opacity="1">40,000</text><text text-anchor="end" transform="translate(-7,203)" font-family="sans-serif" font-size="10px" fill="#000" opacity="1">50,000</text><text text-anchor="end" transform="translate(-7,163)" font-family="sans-serif" font-size="10px" fill="#000" opacity="1">60,000</text><text text-anchor="end" transform="translate(-7,123.00000000000001)" font-family="sans-serif" font-size="10px" fill="#000" opacity="1">70,000</text><text text-anchor="end" transform="translate(-7,82.99999999999999)" font-family="sans-serif" font-size="10px" fill="#000" opacity="1">80,000</text><text text-anchor="end" transform="translate(-7,42.99999999999999)" font-family="sans-serif" font-size="10px" fill="#000" opacity="1">90,000</text><text text-anchor="end" transform="translate(-7,3)" font-family="sans-serif" font-size="10px" fill="#000" opacity="1">100,000</text></g><g class="mark-rule role-axis-domain" pointer-events="none"><line transform="translate(0,400)" x2="0" y2="-400" stroke="#888" stroke-width="1" opacity="1"/></g><g class="mark-text role-axis-title" pointer-events="none"><text text-anchor="middle" transform="translate(-47.1474609375,200) rotate(-90) translate(0,-2)" font-family="sans-serif" font-size="11px" font-weight="bold" fill="#000" opacity="1">Count</text></g></g><path class="foreground" aria-hidden="true" d="" pointer-events="none" display="none"/></g></g><g class="mark-group role-scope pathgroup" role="graphics-object" aria-roledescription="group mark container"><g transform="translate(0,0)"><path class="background" aria-hidden="true" d="M0,0h600v400h-600Z"/><g><g class="mark-line role-mark marks" role="graphics-symbol" aria-roledescription="line mark container"><path d="M0,399.492L4.204,399.48L8.397,399.48L12.59,399.46L16.783,399.228L20.988,399.22L25.181,399.172L29.374,399.184L33.567,398.988L37.771,399.016L41.964,399.036L46.157,399.116L50.35,398.888L54.555,398.98L58.748,398.84L62.941,398.808L67.134,398.704L71.338,398.804L75.531,398.784L79.724,398.908L83.917,398.648L88.11,398.892L92.303,398.776L96.496,398.616L100.689,398.572L104.894,398.536L109.087,398.348L113.28,397.94L117.473,397.944L121.677,397.732L125.87,397.552L130.063,397.052L134.256,395.264L138.461,394.196L142.654,391.756L146.847,389.184L151.04,387.552L155.244,385.86L159.437,383.104L163.63,383.664L167.823,379.576L172.028,375.948L176.221,374.912L180.414,371.164L184.607,366.78L188.811,363.38L193.004,355.684L197.197,347.356L201.39,340.512L205.595,335.848L209.788,326.876L213.981,312.792L218.174,294.732L222.378,292.2L226.571,283.048L230.764,277.208L234.957,273.28L239.162,260.332L243.355,242.892L247.547,250.968L251.74,253.064L255.945,241.836L260.138,221.052L264.331,226.268L268.524,243.22L272.728,246.9L276.921,219.5L281.114,204.812L285.307,212.696L289.512,229.604L293.705,233.78L297.898,237.528L302.091,240.532L306.295,246.1L310.488,254.532L314.681,265.544L318.874,270.792L323.079,281.236L327.272,288.484L331.465,298.576L335.658,302.2L339.862,307.996L344.055,317.444L348.248,326.832L352.441,334.072L356.646,343.908L360.839,347.508L365.032,355.188L369.225,361.036L373.429,364.752L377.622,367.896L381.815,374.188L386.008,379.68L390.213,382.26L394.406,384.376L398.599,386.184L402.792,388.128L406.996,388.62L411.189,389.684L415.382,390.028L419.575,389.692L423.779,389.876L427.972,390.608L432.165,391.92L436.358,392.536L440.563,393.296L444.756,394.048L448.949,393.468L453.142,393.98L457.346,394.028L461.539,394.448L465.732,395.044L469.925,395.492L474.13,396.196L478.323,396.516L482.516,396.976L486.709,397.272L490.913,397.204L495.106,397.688L499.299,397.76L503.492,397.868L507.697,397.996L511.89,397.968L516.083,398.256L520.276,398.268L524.48,398.36L528.673,397.808L532.866,398.08L537.059,398.416L541.264,398.14L545.457,398.36L549.65,398.528L553.843,398.816L558.047,398.72L562.24,398.7L566.433,398.692L570.626,398.684L574.831,398.8L579.024,398.84L583.217,398.856L587.41,398.804L591.614,398.808L595.807,398.896L600,398.78" stroke="#4c78a8" stroke-width="2"/></g></g><path class="foreground" aria-hidden="true" d="" display="none"/></g><g transform="translate(0,0)"><path class="background" aria-hidden="true" d="M0,0h600v400h-600Z"/><g><g class="mark-line role-mark marks" role="graphics-symbol" aria-roledescription="line mark container"><path d="M0,399.552L4.204,399.564L8.397,399.54L12.59,399.436L16.783,399.348L20.988,399.216L25.181,399.08L29.374,398.912L33.567,398.508L37.771,398.492L41.964,398.168L46.157,397.736L50.35,397.496L54.555,396.716L58.748,395.792L62.941,395.492L67.134,394.536L71.338,394.112L75.531,393.316L79.724,393.252L83.917,390.036L88.11,391.308L92.303,389.172L96.496,387.688L100.689,386.092L104.894,384.252L109.087,382.696L113.28,380.132L117.473,377.188L121.677,374.988L125.87,370.728L130.063,364.524L134.256,349.42L138.461,341.304L142.654,324.872L146.847,299.384L151.04,290.328L155.244,284.592L159.437,271.88L163.63,273.064L167.823,253.428L172.028,243.652L176.221,249.14L180.414,243.828L184.607,240.016L188.811,245.72L193.004,253.528L197.197,256.024L201.39,265.072L205.595,274.096L209.788,278.36L213.981,293.9L218.174,300.096L222.378,311.792L226.571,314.872L230.764,322.384L234.957,329.328L239.162,333.716L243.355,334.58L247.547,339.32L251.74,340.496L255.945,341.736L260.138,339.86L264.331,340.828L268.524,346.476L272.728,350.704L276.921,348.812L281.114,348.988L285.307,354.72L289.512,358.364L293.705,361.792L297.898,363.644L302.091,365.564L306.295,367.352L310.488,368.84L314.681,371.04L318.874,372.564L323.079,374.38L327.272,377.844L331.465,379.076L335.658,379.7L339.862,381.076L344.055,383.712L348.248,384.816L352.441,385.868L356.646,388.156L360.839,389.344L365.032,390.744L369.225,391.656L373.429,392.896L377.622,392.804L381.815,393.508L386.008,394.908L390.213,395.3L394.406,395.608L398.599,396.096L402.792,396.072L406.996,396.268L411.189,396.344L415.382,396.44L419.575,396.416L423.779,396.848L427.972,396.684L432.165,396.964L436.358,397.276L440.563,397.124L444.756,397.484L448.949,397.544L453.142,397.568L457.346,397.52L461.539,397.616L465.732,398.012L469.925,397.964L474.13,398.096L478.323,398.232L482.516,398.492L486.709,398.6L490.913,398.736L495.106,398.752L499.299,398.66L503.492,398.744L507.697,398.724L511.89,398.944L516.083,398.832L520.276,398.84L524.48,399.052L528.673,398.932L532.866,398.948L537.059,399.024L541.264,399.092L545.457,399.028L549.65,398.888L553.843,398.884L558.047,398.66L562.24,398.46L566.433,398.408L570.626,398.18L574.831,397.972L579.024,397.892L583.217,397.82L587.41,397.748L591.614,397.404L595.807,397.424L600,397.368" stroke="#f58518" stroke-width="2"/></g></g><path class="foreground" aria-hidden="true" d="" display="none"/></g><g transform="translate(0,0)"><path class="background" aria-hidden="true" d="M0,0h600v400h-600Z"/><g><g class="mark-line role-mark marks" role="graphics-symbol" aria-roledescription="line mark container"><path d="M0,392.244L4.204,392.592L8.397,391.256L12.59,390.98L16.783,389.804L20.988,389.672L25.181,389.28L29.374,389.276L33.567,387.104L37.771,387.768L41.964,387.552L46.157,387.764L50.35,386.156L54.555,386.56L58.748,386.3L62.941,385.588L67.134,386.116L71.338,386.232L75.531,385.364L79.724,386.852L83.917,383.616L88.11,387.136L92.303,385.224L96.496,385.104L100.689,384.668L104.894,383.516L109.087,382.72L113.28,381.504L117.473,380.384L121.677,379.296L125.87,376.8L130.063,374.808L134.256,365.892L138.461,361.98L142.654,354.532L146.847,343.588L151.04,340.24L155.244,339.476L159.437,336.588L163.63,338.852L167.823,336.368L172.028,336.796L176.221,339.028L180.414,338.16L184.607,340.2L188.811,344.256L193.004,348.656L197.197,349.908L201.39,352.936L205.595,355.004L209.788,356.02L213.981,358.828L218.174,360.012L222.378,363.932L226.571,362.616L230.764,363.7L234.957,364.56L239.162,362.46L243.355,360.792L247.547,361.164L251.74,360.18L255.945,358.932L260.138,355.26L264.331,353.424L268.524,355.864L272.728,358.628L276.921,352.988L281.114,346.244L285.307,347.14L289.512,345.148L293.705,342.664L297.898,339.528L302.091,335.912L306.295,335.608L310.488,333.656L314.681,333.22L318.874,334.584L323.079,330.036L327.272,325.852L331.465,326.308L335.658,324.58L339.862,324.576L344.055,328.792L348.248,329.608L352.441,330.82L356.646,334.72L360.839,336.46L365.032,335.536L369.225,340.456L373.429,338.816L377.622,339.544L381.815,345.588L386.008,351.268L390.213,350.568L394.406,350.944L398.599,350.104L402.792,345.816L406.996,334.284L411.189,332.76L415.382,327.704L419.575,321.884L423.779,319.32L427.972,317.972L432.165,320.64L436.358,318.556L440.563,317.82L444.756,323.704L448.949,325.568L453.142,319.836L457.346,318.808L461.539,317.008L465.732,318.428L469.925,323.868L474.13,329.768L478.323,332.856L482.516,335.236L486.709,335.992L490.913,338.288L495.106,339.228L499.299,338.6L503.492,339.536L507.697,340.832L511.89,341.524L516.083,343.512L520.276,345.72L524.48,349.036L528.673,350.248L532.866,347.724L537.059,351.9L541.264,355.796L545.457,358.888L549.65,359.58L553.843,361.1L558.047,362.124L562.24,361.652L566.433,360.952L570.626,361.604L574.831,364.02L579.024,365.64L583.217,368.34L587.41,370.852L591.614,370.968L595.807,371.976L600,373.736" stroke="#e45756" stroke-width="2"/></g></g><path class="foreground" aria-hidden="true" d="" display="none"/></g><g transform="translate(0,0)"><path class="background" aria-hidden="true" d="M0,0h600v400h-600Z"/><g><g class="mark-line role-mark marks" role="graphics-symbol" aria-roledescription="line mark container"><path d="M163.63,399.976L167.823,399.972L172.028,399.98L176.221,399.972L180.414,399.964L184.607,399.956L188.811,399.964L193.004,399.96L197.197,399.98L201.39,399.972L205.595,399.932L209.788,399.932L213.981,399.896L218.174,399.9L222.378,399.88L226.571,399.836L230.764,399.856L234.957,399.832L239.162,399.848L243.355,399.796L247.547,399.752L251.74,399.592L255.945,399.456L260.138,399.208L264.331,398.652L268.524,397.264L272.728,396.06L276.921,393.068L281.114,391.96L285.307,392.472L289.512,389.528L293.705,388.792L297.898,388.104L302.091,385.896L306.295,386.5L310.488,384.14L314.681,383.508L318.874,381.164L323.079,378.068L327.272,376.476L331.465,375.068L335.658,371.032L339.862,362.944L344.055,356.092L348.248,352.968L352.441,348.18L356.646,339.176L360.839,327.14L365.032,327.052L369.225,292.592L373.429,265.184L377.622,215.396L381.815,172.92L386.008,145.58L390.213,150.216L394.406,147.572L398.599,167.268L402.792,162.112L406.996,164.144L411.189,174.728L415.382,173.144L419.575,166.484L423.779,171.808L427.972,171.512L432.165,182.592L436.358,197.748L440.563,229.368L444.756,255.252L448.949,269.172L453.142,288.432L457.346,304L461.539,311.06L465.732,317.308L469.925,328.724L474.13,337.004L478.323,344L482.516,349.268L486.709,353.084L490.913,352.644L495.106,357.236L499.299,357.544L503.492,362.444L507.697,364.316L511.89,365.844L516.083,369.728L520.276,373.82L524.48,376.652L528.673,378.932L532.866,381.388L537.059,384.82L541.264,388.052L545.457,389.512L549.65,390.88L553.843,392.292L558.047,393.236L562.24,393.916L566.433,394.856L570.626,395.356L574.831,395.792L579.024,396.316L583.217,396.848L587.41,397.156L591.614,397.452L595.807,397.48L600,397.668" stroke="#72b7b2" stroke-width="2"/></g></g><path class="foreground" aria-hidden="true" d="" display="none"/></g><g transform="translate(0,0)"><path class="background" aria-hidden="true" d="M0,0h600v400h-600Z"/><g><g class="mark-line role-mark marks" role="graphics-symbol" aria-roledescription="line mark container"><path d="M0,399.892L4.204,399.848L8.397,399.856L12.59,399.804L16.783,399.868L20.988,399.76L25.181,399.804L29.374,399.8L33.567,399.692L37.771,399.704L41.964,399.784L46.157,399.688L50.35,399.668L54.555,399.672L58.748,399.624L62.941,399.616L67.134,399.584L71.338,399.676L75.531,399.592L79.724,399.608L83.917,399.5L88.11,399.656L92.303,399.636L96.496,399.64L100.689,399.596L104.894,399.58L109.087,399.608L113.28,399.592L117.473,399.628L121.677,399.58L125.87,399.452L130.063,399.48L134.256,399.244L138.461,399.048L142.654,399.124L146.847,398.84L151.04,398.812L155.244,398.836L159.437,398.712L163.63,398.872L167.823,398.608L172.028,398.532L176.221,398.54L180.414,398.308L184.607,398.184L188.811,398.248L193.004,398.08L197.197,397.936L201.39,397.78L205.595,397.964L209.788,398.032L213.981,397.86L218.174,396.904L222.378,396.872L226.571,396L230.764,395.212L234.957,390.24L239.162,382.488L243.355,371.812L247.547,357.148L251.74,326.528L255.945,305.112L260.138,273.548L264.331,246.236L268.524,246.344L272.728,234.148L276.921,189.164L281.114,1.228L285.307,15.14L289.512,35.932L293.705,78.28L297.898,104.072L302.091,131.68L306.295,154.872L310.488,178.5L314.681,194.8L318.874,207.672L323.079,221.948L327.272,232.392L331.465,238.372L335.658,250.736L339.862,257.648L344.055,274.152L348.248,289.096L352.441,305.48L356.646,322.64L360.839,337.744L365.032,347.212L369.225,354.52L373.429,359.016L377.622,365.08L381.815,370.5L386.008,377.028L390.213,381.076L394.406,383.692L398.599,385.908L402.792,387.444L406.996,388.356L411.189,388.28L415.382,389.04L419.575,388.78L423.779,389.084L427.972,388.836L432.165,390.096L436.358,390.656L440.563,391.54L444.756,392.2L448.949,392.28L453.142,392.62L457.346,392.62L461.539,393.356L465.732,393.568L469.925,393.672L474.13,394.048L478.323,394.864L482.516,395.068L486.709,396.052L490.913,395.604L495.106,396.112L499.299,396.4L503.492,396.596L507.697,396.644L511.89,396.908L516.083,397.036L520.276,397.08L524.48,396.988L528.673,397.2L532.866,397.352L537.059,397.544L541.264,397.788L545.457,398.084L549.65,398.04L553.843,398.2L558.047,398.216L562.24,398.104L566.433,398.284L570.626,398.228L574.831,398.364L579.024,398.412L583.217,398.56L587.41,398.664L591.614,398.696L595.807,398.596L600,398.716" stroke="#54a24b" stroke-width="2"/></g></g><path class="foreground" aria-hidden="true" d="" display="none"/></g><g transform="translate(0,0)"><path class="background" aria-hidden="true" d="M0,0h600v400h-600Z"/><g><g class="mark-line role-mark marks" role="graphics-symbol" aria-roledescription="line mark container"><path d="M0,393.688L4.204,393.368L8.397,392.716L12.59,392.476L16.783,391.432L20.988,391.184L25.181,390.9L29.374,390.324L33.567,388.384L37.771,388.332L41.964,387.6L46.157,387.74L50.35,386.26L54.555,385.74L58.748,385.2L62.941,384.276L67.134,383.8L71.338,383.416L75.531,381.216L79.724,383.004L83.917,378.784L88.11,382.304L92.303,379.956L96.496,379.816L100.689,378.792L104.894,377.24L109.087,375.616L113.28,373.148L117.473,372.096L121.677,370.568L125.87,367.096L130.063,362.884L134.256,349.856L138.461,342.056L142.654,328.948L146.847,307.784L151.04,300.188L155.244,297.76L159.437,291.444L163.63,295.048L167.823,288.024L172.028,286.128L176.221,292.552L180.414,295.46L184.607,293.816L188.811,302.152L193.004,307.708L197.197,312.144L201.39,318.82L205.595,323.16L209.788,326.596L213.981,330.668L218.174,333.78L222.378,339.036L226.571,339.424L230.764,341.096L234.957,341.62L239.162,339.432L243.355,338.676L247.547,340.196L251.74,339.752L255.945,337.22L260.138,333.812L264.331,331.384L268.524,334.72L272.728,337.256L276.921,327.468L281.114,319.596L285.307,324.508L289.512,322.192L293.705,327.56L297.898,329.232L302.091,331.596L306.295,335.216L310.488,339.092L314.681,342.236L318.874,344.344L323.079,347.948L327.272,350.744L331.465,353.704L335.658,354.548L339.862,357.78L344.055,359.708L348.248,362.768L352.441,363.596L356.646,368.812L360.839,372.16L365.032,375.096L369.225,378.24L373.429,379.828L377.622,381.184L381.815,383.996L386.008,386.86L390.213,387.328L394.406,387.652L398.599,388.2L402.792,389.332L406.996,389.504L411.189,389.484L415.382,388.672L419.575,388.556L423.779,388.836L427.972,388.012L432.165,388.224L436.358,387.864L440.563,387.716L444.756,387.66L448.949,387.416L453.142,387.448L457.346,386.86L461.539,386.512L465.732,387.22L469.925,387.036L474.13,387.328L478.323,387.58L482.516,387.112L486.709,387.588L490.913,388.132L495.106,388.156L499.299,388.168L503.492,387.512L507.697,388.416L511.89,389.288L516.083,389.5L520.276,390.256L524.48,390.756L528.673,391.248L532.866,391.896L537.059,392.544L541.264,392.936L545.457,393.2L549.65,393.204L553.843,392.884L558.047,392.904L562.24,392.196L566.433,391.56L570.626,391.136L574.831,390.98L579.024,390.668L583.217,391.144L587.41,391.224L591.614,391.036L595.807,391.216L600,391.72" stroke="#eeca3b" stroke-width="2"/></g></g><path class="foreground" aria-hidden="true" d="" display="none"/></g><g transform="translate(0,0)"><path class="background" aria-hidden="true" d="M0,0h600v400h-600Z"/><g><g class="mark-line role-mark marks" role="graphics-symbol" aria-roledescription="line mark container"><path d="M0,371.74L4.204,372.324L8.397,367.408L12.59,367.952L16.783,363.132L20.988,363.488L25.181,360.444L29.374,360.448L33.567,352.984L37.771,353.408L41.964,351.688L46.157,353.184L50.35,347.312L54.555,348.864L58.748,347.396L62.941,346.212L67.134,344.756L71.338,346.348L75.531,342.376L79.724,347.312L83.917,333.18L88.11,347.456L92.303,342.056L96.496,342.9L100.689,340.156L104.894,335.732L109.087,334.52L113.28,329.68L117.473,325.34L121.677,322.964L125.87,308.608L130.063,302.44L134.256,270.784L138.461,253.432L142.654,218.616L146.847,167.252L151.04,154.248L155.244,142.88L159.437,130.54L163.63,136.656L167.823,116.068L172.028,104.064L176.221,111.296L180.414,113.46L184.607,105.864L188.811,117.656L193.004,128.664L197.197,117.432L201.39,132.52L205.595,145.96L209.788,143.388L213.981,158.808L218.174,160.476L222.378,177.932L226.571,172.276L230.764,179.688L234.957,182.508L239.162,177.424L243.355,175.116L247.547,180.404L251.74,175.144L255.945,167.808L260.138,146.984L264.331,135.288L268.524,150.108L272.728,162.88L276.921,130.112L281.114,113.256L285.307,125.6L289.512,132.532L293.705,138.068L297.898,137.116L302.091,137.492L306.295,142.44L310.488,127.916L314.681,147.308L318.874,153.028L323.079,155.592L327.272,176.616L331.465,182.012L335.658,194.096L339.862,209.256L344.055,226.028L348.248,233.824L352.441,236.064L356.646,262.908L360.839,284.448L365.032,298.72L369.225,313.116L373.429,320.6L377.622,323.188L381.815,333.196L386.008,344.968L390.213,350.748L394.406,353.036L398.599,356.124L402.792,358.724L406.996,357.384L411.189,359.844L415.382,357.776L419.575,354.104L423.779,355.828L427.972,356.596L432.165,360.42L436.358,362.824L440.563,363.044L444.756,365.972L448.949,366.42L453.142,365.944L457.346,365.424L461.539,365.32L465.732,364.948L469.925,366.148L474.13,367.516L478.323,368.98L482.516,370.168L486.709,372.132L490.913,373.4L495.106,374.104L499.299,374.456L503.492,375.128L507.697,376.972L511.89,378.068L516.083,379.856L520.276,380.676L524.48,382.092L528.673,383.564L532.866,385.24L537.059,385.948L541.264,387.312L545.457,388.48L549.65,389.148L553.843,389.668L558.047,389.332L562.24,389.46L566.433,389.44L570.626,389.9L574.831,390.316L579.024,390.536L583.217,391.052L587.41,391.1L591.614,391.612L595.807,391.544L600,391.752" stroke="#b279a2" stroke-width="2"/></g></g><path class="foreground" aria-hidden="true" d="" display="none"/></g><g transform="translate(0,0)"><path class="background" aria-hidden="true" d="M0,0h600v400h-600Z"/><g><g class="mark-line role-mark marks" role="graphics-symbol" aria-roledescription="line mark container"><path d="M16.783,399.976L20.988,399.98L25.181,399.968L29.374,399.96L33.567,399.952L37.771,399.932L41.964,399.956L46.157,399.952L50.35,399.916L54.555,399.888L58.748,399.856L62.941,399.86L67.134,399.852L71.338,399.804L75.531,399.812L79.724,399.78L83.917,399.652L88.11,399.728L92.303,399.66L96.496,399.684L100.689,399.504L104.894,399.516L109.087,399.372L113.28,399.292L117.473,399.18L121.677,399.068L125.87,398.736L130.063,398.7L134.256,397.984L138.461,397.648L142.654,397.376L146.847,396.42L151.04,395.688L155.244,394.236L159.437,392.96L163.63,391.424L167.823,389.992L172.028,386.48L176.221,384.392L180.414,380.8L184.607,372.172L188.811,367.616L193.004,365.656L197.197,357.784L201.39,350.676L205.595,345.504L209.788,336.996L213.981,334.12L218.174,328.04L222.378,325.472L226.571,316.624L230.764,308.492L234.957,304.328L239.162,292.644L243.355,289.784L247.547,281.184L251.74,269.332L255.945,252.392L260.138,242.148L264.331,241.512L268.524,252.504L272.728,256.636L276.921,214.804L281.114,194.888L285.307,215.444L289.512,214.7L293.705,208.228L297.898,174.22L302.091,187.62L306.295,195.916L310.488,203.408L314.681,215.096L318.874,226.676L323.079,242.884L327.272,248.148L331.465,259.12L335.658,271.576L339.862,284.464L344.055,293.872L348.248,298.5L352.441,295.652L356.646,305.784L360.839,319.556L365.032,328.984L369.225,336.792L373.429,340.168L377.622,346.376L381.815,354.132L386.008,361.596L390.213,366.092L394.406,367.856L398.599,371.788L402.792,375.932L406.996,376.384L411.189,378.008L415.382,377.4L419.575,378.76L423.779,378.864L427.972,379.328L432.165,380.3L436.358,382.096L440.563,382.392L444.756,383.012L448.949,384.348L453.142,384.804L457.346,385.58L461.539,385.684L465.732,386.324L469.925,388.2L474.13,389.364L478.323,390.544L482.516,391.356L486.709,392.12L490.913,392.876L495.106,393.184L499.299,393.872L503.492,394.428L507.697,395.104L511.89,395.54L516.083,395.956L520.276,396.012L524.48,396.484L528.673,396.896L532.866,397.092L537.059,397.48L541.264,397.74L545.457,398.084L549.65,398.276L553.843,398.416L558.047,398.324L562.24,398.484L566.433,398.6L570.626,398.452L574.831,398.768L579.024,398.808L583.217,398.876L587.41,399.132L591.614,399.152L595.807,399.116L600,399.192" stroke="#ff9da6" stroke-width="2"/></g></g><path class="foreground" aria-hidden="true" d="" display="none"/></g><g transform="translate(0,0)"><path class="background" aria-hidden="true" d="M0,0h600v400h-600Z"/><g><g class="mark-line role-mark marks" role="graphics-symbol" aria-roledescription="line mark container"><path d="M0,394.848L4.204,395.096L8.397,394.36L12.59,394.564L16.783,393.928L20.988,394.304L25.181,393.724L29.374,394.256L33.567,392.98L37.771,393.08L41.964,392.856L46.157,393.324L50.35,392.808L54.555,393.472L58.748,393.196L62.941,392.892L67.134,393.236L71.338,393.148L75.531,392.8L79.724,393.652L83.917,391.784L88.11,393.944L92.303,393.16L96.496,393.788L100.689,393.624L104.894,392.952L109.087,393.212L113.28,392.804L117.473,392.744L121.677,392.62L125.87,391.308L130.063,391.196L134.256,388.324L138.461,387.288L142.654,385.284L146.847,382.34L151.04,380.808L155.244,380.936L159.437,380.124L163.63,379.912L167.823,379.876L172.028,379.904L176.221,380.072L180.414,380.148L184.607,379.82L188.811,381.26L193.004,382.308L197.197,381.776L201.39,383.024L205.595,384.74L209.788,384.32L213.981,385.456L218.174,385.612L222.378,385.516L226.571,385.596L230.764,385.54L234.957,385.94L239.162,385.648L243.355,385.008L247.547,385.312L251.74,384.524L255.945,384.068L260.138,383.6L264.331,384.044L268.524,384.572L272.728,385.628L276.921,384.364L281.114,383.108L285.307,383.372L289.512,382.82L293.705,383.424L297.898,383.888L302.091,383.808L306.295,383.66L310.488,383.84L314.681,384.084L318.874,384.512L323.079,384.048L327.272,384.356L331.465,384.52L335.658,383.176L339.862,383.176L344.055,381.812L348.248,381.716L352.441,381.668L356.646,383.76L360.839,383.868L365.032,383.444L369.225,382.044L373.429,379.684L377.622,377.544L381.815,376.624L386.008,375.544L390.213,371.144L394.406,360.84L398.599,355.32L402.792,344.016L406.996,327.612L411.189,320.104L415.382,315.928L419.575,296.964L423.779,287.316L427.972,286.048L432.165,291.08L436.358,296.448L440.563,300.492L444.756,287.356L448.949,288.42L453.142,286.508L457.346,288.824L461.539,296.7L465.732,299.084L469.925,301.456L474.13,302.984L478.323,310.816L482.516,314.428L486.709,315.828L490.913,317.14L495.106,320.42L499.299,323.536L503.492,329.148L507.697,336.296L511.89,340.9L516.083,344.876L520.276,348.984L524.48,353.804L528.673,355.364L532.866,359.976L537.059,363.796L541.264,368.844L545.457,374.648L549.65,377.736L553.843,379.188L558.047,381.144L562.24,381.148L566.433,381.88L570.626,382.296L574.831,383.868L579.024,384.896L583.217,386.732L587.41,387.732L591.614,388.552L595.807,388.816L600,389.004" stroke="#9d755d" stroke-width="2"/></g></g><path class="foreground" aria-hidden="true" d="" display="none"/></g><g transform="translate(0,0)"><path class="background" aria-hidden="true" d="M0,0h600v400h-600Z"/><g><g class="mark-line role-mark marks" role="graphics-symbol" aria-roledescription="line mark container"><path d="M0,398.856L4.204,398.832L8.397,398.696L12.59,398.712L16.783,398.696L20.988,398.792L25.181,398.708L29.374,398.66L33.567,398.548L37.771,398.576L41.964,398.584L46.157,398.52L50.35,398.536L54.555,398.576L58.748,398.572L62.941,398.428L67.134,398.628L71.338,398.636L75.531,398.472L79.724,398.6L83.917,398.36L88.11,398.632L92.303,398.66L96.496,398.78L100.689,398.704L104.894,398.72L109.087,398.696L113.28,398.58L117.473,398.6L121.677,398.48L125.87,398.42L130.063,398.164L134.256,397.912L138.461,397.828L142.654,397.356L146.847,396.732L151.04,396.624L155.244,396.652L159.437,396.352L163.63,396.704L167.823,396.6L172.028,396.616L176.221,396.82L180.414,396.756L184.607,396.672L188.811,396.552L193.004,396.568L197.197,396.528L201.39,396.752L205.595,396.504L209.788,395.988L213.981,395.98L218.174,395.092L222.378,394.944L226.571,394.032L230.764,392.796L234.957,391.388L239.162,389.436L243.355,385.78L247.547,380.452L251.74,372.98L255.945,364.448L260.138,351.94L264.331,340.448L268.524,334.68L272.728,323.116L276.921,286.928L281.114,272.196L285.307,256.048L289.512,249.16L293.705,247.936L297.898,239.088L302.091,234.616L306.295,222.808L310.488,211.356L314.681,210.328L318.874,213.748L323.079,216.192L327.272,219.3L331.465,233.568L335.658,243.192L339.862,249.864L344.055,257.04L348.248,264.024L352.441,273.956L356.646,294.7L360.839,304.912L365.032,310.944L369.225,321.984L373.429,328.788L377.622,337.04L381.815,344.872L386.008,357.704L390.213,362.876L394.406,366.116L398.599,370.052L402.792,374.384L406.996,376.16L411.189,378.328L415.382,379.212L419.575,381.184L423.779,383.02L427.972,384.128L432.165,386.572L436.358,387.536L440.563,389.356L444.756,390.44L448.949,391.012L453.142,391.76L457.346,392.8L461.539,393.252L465.732,394.084L469.925,394.508L474.13,395.2L478.323,395.896L482.516,396.424L486.709,396.148L490.913,396.772L495.106,396.968L499.299,397.172L503.492,397.232L507.697,397.448L511.89,397.544L516.083,397.708L520.276,397.884L524.48,398.056L528.673,398.02L532.866,398.132L537.059,398.276L541.264,398.488L545.457,398.58L549.65,398.576L553.843,398.692L558.047,398.724L562.24,398.692L566.433,398.804L570.626,398.78L574.831,398.896L579.024,399.064L583.217,399.024L587.41,398.952L591.614,399.096L595.807,399.164L600,399.128" stroke="#bab0ac" stroke-width="2"/></g></g><path class="foreground" aria-hidden="true" d="" display="none"/></g></g><g class="mark-group role-legend" role="graphics-symbol" aria-roledescription="legend" aria-label="Symbol legend titled 'Name' for stroke color with 10 values: Barbara, Dorothy, Elizabeth, Jennifer, Linda, ending with Susan"><g transform="translate(620,0)"><path class="background" aria-hidden="true" d="M0,0h58v144h-58Z" pointer-events="none"/><g><g class="mark-group role-legend-entry"><g transform="translate(0,16)"><path class="background" aria-hidden="true" d="M0,0h0v0h0Z" pointer-events="none"/><g><g class="mark-group role-scope" role="graphics-object" aria-roledescription="group mark container"><g transform="translate(0,0)"><path class="background" aria-hidden="true" d="M0,0h57.1376953125v11h-57.1376953125Z" pointer-events="none" opacity="1"/><g><g class="mark-symbol role-legend-symbol" pointer-events="none"><path transform="translate(6,6)" d="M-5,0L5,0" stroke="#4c78a8" stroke-width="1.5" opacity="1"/></g><g class="mark-text role-legend-label" pointer-events="none"><text text-anchor="start" transform="translate(16,9)" font-family="sans-serif" font-size="10px" fill="#000" opacity="1">Barbara</text></g></g><path class="foreground" aria-hidden="true" d="" pointer-events="none" display="none"/></g><g transform="translate(0,13)"><path class="background" aria-hidden="true" d="M0,0h57.1376953125v11h-57.1376953125Z" pointer-events="none" opacity="1"/><g><g class="mark-symbol role-legend-symbol" pointer-events="none"><path transform="translate(6,6)" d="M-5,0L5,0" stroke="#f58518" stroke-width="1.5" opacity="1"/></g><g class="mark-text role-legend-label" pointer-events="none"><text text-anchor="start" transform="translate(16,9)" font-family="sans-serif" font-size="10px" fill="#000" opacity="1">Dorothy</text></g></g><path class="foreground" aria-hidden="true" d="" pointer-events="none" display="none"/></g><g transform="translate(0,26)"><path class="background" aria-hidden="true" d="M0,0h57.1376953125v11h-57.1376953125Z" pointer-events="none" opacity="1"/><g><g class="mark-symbol role-legend-symbol" pointer-events="none"><path transform="translate(6,6)" d="M-5,0L5,0" stroke="#e45756" stroke-width="1.5" opacity="1"/></g><g class="mark-text role-legend-label" pointer-events="none"><text text-anchor="start" transform="translate(16,9)" font-family="sans-serif" font-size="10px" fill="#000" opacity="1">Elizabeth</text></g></g><path class="foreground" aria-hidden="true" d="" pointer-events="none" display="none"/></g><g transform="translate(0,39)"><path class="background" aria-hidden="true" d="M0,0h57.1376953125v11h-57.1376953125Z" pointer-events="none" opacity="1"/><g><g class="mark-symbol role-legend-symbol" pointer-events="none"><path transform="translate(6,6)" d="M-5,0L5,0" stroke="#72b7b2" stroke-width="1.5" opacity="1"/></g><g class="mark-text role-legend-label" pointer-events="none"><text text-anchor="start" transform="translate(16,9)" font-family="sans-serif" font-size="10px" fill="#000" opacity="1">Jennifer</text></g></g><path class="foreground" aria-hidden="true" d="" pointer-events="none" display="none"/></g><g transform="translate(0,52)"><path class="background" aria-hidden="true" d="M0,0h57.1376953125v11h-57.1376953125Z" pointer-events="none" opacity="1"/><g><g class="mark-symbol role-legend-symbol" pointer-events="none"><path transform="translate(6,6)" d="M-5,0L5,0" stroke="#54a24b" stroke-width="1.5" opacity="1"/></g><g class="mark-text role-legend-label" pointer-events="none"><text text-anchor="start" transform="translate(16,9)" font-family="sans-serif" font-size="10px" fill="#000" opacity="1">Linda</text></g></g><path class="foreground" aria-hidden="true" d="" pointer-events="none" display="none"/></g><g transform="translate(0,65)"><path class="background" aria-hidden="true" d="M0,0h57.1376953125v11h-57.1376953125Z" pointer-events="none" opacity="1"/><g><g class="mark-symbol role-legend-symbol" pointer-events="none"><path transform="translate(6,6)" d="M-5,0L5,0" stroke="#eeca3b" stroke-width="1.5" opacity="1"/></g><g class="mark-text role-legend-label" pointer-events="none"><text text-anchor="start" transform="translate(16,9)" font-family="sans-serif" font-size="10px" fill="#000" opacity="1">Margaret</text></g></g><path class="foreground" aria-hidden="true" d="" pointer-events="none" display="none"/></g><g transform="translate(0,78)"><path class="background" aria-hidden="true" d="M0,0h57.1376953125v11h-57.1376953125Z" pointer-events="none" opacity="1"/><g><g class="mark-symbol role-legend-symbol" pointer-events="none"><path transform="translate(6,6)" d="M-5,0L5,0" stroke="#b279a2" stroke-width="1.5" opacity="1"/></g><g class="mark-text role-legend-label" pointer-events="none"><text text-anchor="start" transform="translate(16,9)" font-family="sans-serif" font-size="10px" fill="#000" opacity="1">Mary</text></g></g><path class="foreground" aria-hidden="true" d="" pointer-events="none" display="none"/></g><g transform="translate(0,91)"><path class="background" aria-hidden="true" d="M0,0h57.1376953125v11h-57.1376953125Z" pointer-events="none" opacity="1"/><g><g class="mark-symbol role-legend-symbol" pointer-events="none"><path transform="translate(6,6)" d="M-5,0L5,0" stroke="#ff9da6" stroke-width="1.5" opacity="1"/></g><g class="mark-text role-legend-label" pointer-events="none"><text text-anchor="start" transform="translate(16,9)" font-family="sans-serif" font-size="10px" fill="#000" opacity="1">Patricia</text></g></g><path class="foreground" aria-hidden="true" d="" pointer-events="none" display="none"/></g><g transform="translate(0,104)"><path class="background" aria-hidden="true" d="M0,0h57.1376953125v11h-57.1376953125Z" pointer-events="none" opacity="1"/><g><g class="mark-symbol role-legend-symbol" pointer-events="none"><path transform="translate(6,6)" d="M-5,0L5,0" stroke="#9d755d" stroke-width="1.5" opacity="1"/></g><g class="mark-text role-legend-label" pointer-events="none"><text text-anchor="start" transform="translate(16,9)" font-family="sans-serif" font-size="10px" fill="#000" opacity="1">Sarah</text></g></g><path class="foreground" aria-hidden="true" d="" pointer-events="none" display="none"/></g><g transform="translate(0,117)"><path class="background" aria-hidden="true" d="M0,0h57.1376953125v11h-57.1376953125Z" pointer-events="none" opacity="1"/><g><g class="mark-symbol role-legend-symbol" pointer-events="none"><path transform="translate(6,6)" d="M-5,0L5,0" stroke="#bab0ac" stroke-width="1.5" opacity="1"/></g><g class="mark-text role-legend-label" pointer-events="none"><text text-anchor="start" transform="translate(16,9)" font-family="sans-serif" font-size="10px" fill="#000" opacity="1">Susan</text></g></g><path class="foreground" aria-hidden="true" d="" pointer-events="none" display="none"/></g></g></g><path class="foreground" aria-hidden="true" d="" pointer-events="none" display="none"/></g></g><g class="mark-text role-legend-title" pointer-events="none"><text text-anchor="start" transform="translate(0,9)" font-family="sans-serif" font-size="11px" font-weight="bold" fill="#000" opacity="1">Name</text></g></g><path class="foreground" aria-hidden="true" d="" pointer-events="none" display="none"/></g></g><g class="mark-group role-title"><g transform="translate(300,-22)"><path class="background" aria-hidden="true" d="M0,0h0v0h0Z" pointer-events="none"/><g><g class="mark-text role-title-text" role="graphics-symbol" aria-roledescription="title" aria-label="Title text 'Most Popular Female Names in America'" pointer-events="none"><text text-anchor="middle" transform="translate(0,10)" font-family="sans-serif" font-size="13px" font-weight="bold" fill="#000" opacity="1">Most Popular Female Names in America</text></g></g><path class="foreground" aria-hidden="true" d="" pointer-events="none" display="none"/></g></g></g><path class="foreground" aria-hidden="true" d="" display="none"/></g></g></g></svg>