<svg xmlns="http://www.w3.org/2000/svg" xmlns:xlink="http://www.w3.org/1999/xlink" version="1.1" class="marks" width="708" height="447" viewBox="0 0 708 447"><rect width="708" height="447" fill="white"/><g fill="none" stroke-miterlimit="10" transform="translate(58,10)"><g class="mark-group role-frame root" role="graphics-object" aria-roledescription="group mark container"><g transform="translate(0,0)"><path class="background" aria-hidden="true" d="M0.5,0.5h600v400h-600Z" stroke="#ddd"/><g><g class="mark-group role-axis" aria-hidden="true"><g transform="translate(0.5,400.5)"><path class="background" aria-hidden="true" d="M0,0h0v0h0Z" pointer-events="none"/><g><g class="mark-rule role-axis-grid" pointer-events="none"><line transform="translate(0,-400)" x2="0" y2="400" stroke="#ddd" stroke-width="1" opacity="1"/><line transform="translate(42,-400)" x2="0" y2="400" stroke="#ddd" stroke-width="1" opacity="1"/><line transform="translate(84,-400)" x2="0" y2="400" stroke="#ddd" stroke-width="1" opacity="1"/><line transform="translate(126,-400)" x2="0" y2="400" stroke="#ddd" stroke-width="1" opacity="1"/><line transform="translate(168,-400)" x2="0" y2="400" stroke="#ddd" stroke-width="1" opacity="1"/><line transform="translate(210,-400)" x2="0" y2="400" stroke="#ddd" stroke-width="1" opacity="1"/><line transform="translate(252,-400)" x2="0" y2="400" stroke="#ddd" stroke-width="1" opacity="1"/><line transform="translate(294,-400)" x2="0" y2="400" stroke="#ddd" stroke-width="1" opacity="1"/><line transform="translate(336,-400)" x2="0" y2="400" stroke="#ddd" stroke-width="1" opacity="1"/><line transform="translate(378,-400)" x2="0" y2="400" stroke="#ddd" stroke-width="1" opacity="1"/><line transform="translate(420,-400)" x2="0" y2="400" stroke="#ddd" stroke-width="1" opacity="1"/><line transform="translate(462,-400)" x2="0" y2="400" stroke="#ddd" stroke-width="1" opacity="1"/><line transform="translate(503,-400)" x2="0" y2="400" stroke="#ddd" stroke-width="1" opacity="1"/><line transform="translate(545,-400)" x2="0" y2="400" stroke="#ddd" stroke-width="1" opacity="1"/><line transform="translate(587,-400)" x2="0" y2="400" stroke="#ddd" stroke-width="1" opacity="1"/></g></g><path class="foreground" aria-hidden="true" d="" pointer-events="none" display="none"/></g></g><g class="mark-group role-axis" aria-hidden="true"><g transform="translate(0.5,0.5)"><path class="background" aria-hidden="true" d="M0,0h0v0h0Z" pointer-events="none"/><g><g class="mark-rule role-axis-grid" pointer-events="none"><line transform="translate(0,400)" x2="600" y2="0" stroke="#ddd" stroke-width="1" opacity="1"/><line transform="translate(0,364)" x2="600" y2="0" stroke="#ddd" stroke-width="1" opacity="1"/><line transform="translate(0,327)" x2="600" y2="0" stroke="#ddd" stroke-width="1" opacity="1"/><line transform="translate(0,291)" x2="600" y2="0" stroke="#ddd" stroke-width="1" opacity="1"/><line transform="translate(0,255)" x2="600" y2="0" stroke="#ddd" stroke-width="1" opacity="1"/><line transform="translate(0,218)" x2="600" y2="0" stroke="#ddd" stroke-width="1" opacity="1"/><line transform="translate(0,182)" x2="600" y2="0" stroke="#ddd" stroke-width="1" opacity="1"/><line transform="translate(0,145)" x2="600" y2="0" stroke="#ddd" stroke-width="1" opacity="1"/><line transform="translate(0,109)" x2="600" y2="0" stroke="#ddd" stroke-width="1" opacity="1"/><line transform="translate(0,73)" x2="600" y2="0" stroke="#ddd" stroke-width="1" opacity="1"/><line transform="translate(0,36)" x2="600" y2="0" stroke="#ddd" stroke-width="1" opacity="1"/><line transform="translate(0,0)" x2="600" y2="0" stroke="#ddd" stroke-width="1" opacity="1"/></g></g><path class="foreground" aria-hidden="true" d="" pointer-events="none" display="none"/></g></g><g class="mark-group role-axis" role="graphics-symbol" aria-roledescription="axis" aria-label="X-axis titled 'Year' for a time scale with values from 1880 to 2023"><g transform="translate(0.5,400.5)"><path class="background" aria-hidden="true" d="M0,0h0v0h0Z" pointer-events="none"/><g><g class="mark-rule role-axis-tick" pointer-events="none"><line transform="translate(0,0)" x2="0" y2="5" stroke="#888" stroke-width="1" opacity="1"/><line transform="translate(42,0)" x2="0" y2="5" stroke="#888" stroke-width="1" opacity="1"/><line transform="translate(84,0)" x2="0" y2="5" stroke="#888" stroke-width="1" opacity="1"/><line transform="translate(126,0)" x2="0" y2="5" stroke="#888" stroke-width="1" opacity="1"/><line transform="translate(168,0)" x2="0" y2="5" stroke="#888" stroke-width="1" opacity="1"/><line transform="translate(210,0)" x2="0" y2="5" stroke="#888" stroke-width="1" opacity="1"/><line transform="translate(252,0)" x2="0" y2="5" stroke="#888" stroke-width="1" opacity="1"/><line transform="translate(294,0)" x2="0" y2="5" stroke="#888" stroke-width="1" opacity="1"/><line transform="translate(336,0)" x2="0" y2="5" stroke="#888" stroke-width="1" opacity="1"/><line transform="translate(378,0)" x2="0" y2="5" stroke="#888" stroke-width="1" opacity="1"/><line transform="translate(420,0)" x2="0" y2="5" stroke="#888" stroke-width="1" opacity="1"/><line transform="translate(462,0)" x2="0" y2="5" stroke="#888" stroke-width="1" opacity="1"/><line transform="translate(503,0)" x2="0" y2="5" stroke="#888" stroke-width="1" opacity="1"/><line transform="translate(545,0)" x2="0" y2="5" stroke="#888" stroke-width="1" opacity="1"/><line transform="translate(587,0)" x2="0" y2="5" stroke="#888" stroke-width="1" opacity="1"/></g><g class="mark-text role-axis-label" pointer-events="none"><text text-anchor="start" transform="translate(0,15)" font-family="sans-serif" font-size="10px" fill="#000" opacity="1">1880</text><text text-anchor="middle" transform="translate(41.96437501259494,15)" font-family="sans-serif" font-size="10px" fill="#000" opacity="1">1890</text><text text-anchor="middle" transform="translate(83.9172623780471,15)" font-family="sans-serif" font-size="10px" fill="#000" opacity="1">1900</text><text text-anchor="middle" transform="translate(125.87014974349925,15)" font-family="sans-serif" font-size="10px" fill="#000" opacity="1">1910</text><text text-anchor="middle" transform="translate(167.82303710895144,15)" font-family="sans-serif" font-size="10px" fill="#000" opacity="1">1920</text><text text-anchor="middle" transform="translate(209.78760185386668,15)" font-family="sans-serif" font-size="10px" fill="#000" opacity="1">1930</text><text text-anchor="middle" transform="translate(251.74048921931882,15)" font-family="sans-serif" font-size="10px" fill="#000" opacity="1">1940</text><text text-anchor="middle" transform="translate(293.70486423191375,15)" font-family="sans-serif" font-size="10px" fill="#000" opacity="1">1950</text><text text-anchor="middle" transform="translate(335.6577515973659,15)" font-family="sans-serif" font-size="10px" fill="#000" opacity="1">1960</text><text text-anchor="middle" transform="translate(377.62212660996084,15)" font-family="sans-serif" font-size="10px" fill="#000" opacity="1">1970</text><text text-anchor="middle" transform="translate(419.575013975413,15)" font-family="sans-serif" font-size="10px" fill="#000" opacity="1">1980</text><text text-anchor="middle" transform="translate(461.539388988008,15)" font-family="sans-serif" font-size="10px" fill="#000" opacity="1">1990</text><text text-anchor="middle" transform="translate(503.4922763534601,15)" font-family="sans-serif" font-size="10px" fill="#000" opacity="1">2000</text><text text-anchor="middle" transform="translate(545.4566513660551,15)" font-family="sans-serif" font-size="10px" fill="#000" opacity="1">2010</text><text text-anchor="middle" transform="translate(587.4095387315073,15)" font-family="sans-serif" font-size="10px" fill="#000" opacity="1">2020</text></g><g class="mark-rule role-axis-domain" pointer-events="none"><line transform="translate(0,0)" x2="600" y2="0" stroke="#888" stroke-width="1" opacity="1"/></g><g class="mark-text role-axis-title" pointer-events="none"><text text-anchor="middle" transform="translate(300,30)" font-family="sans-serif" font-size="11px" font-weight="bold" fill="#000" opacity="1">Year</text></g></g><path class="foreground" aria-hidden="true" d="" pointer-events="none" display="none"/></g></g><g class="mark-group role-axis" role="graphics-symbol" aria-roledescription="axis" aria-label="Y-axis titled 'Number of Unique Names' for a linear scale with values from 0 to 22,000"><g transform="translate(0.5,0.5)"><path class="background" aria-hidden="true" d="M0,0h0v0h0Z" pointer-events="none"/><g><g class="mark-rule role-axis-tick" pointer-events="none"><line transform="translate(0,400)" x2="-5" y2="0" stroke="#888" stroke-width="1" opacity="1"/><line transform="translate(0,364)" x2="-5" y2="0" stroke="#888" stroke-width="1" opacity="1"/><line transform="translate(0,327)" x2="-5" y2="0" stroke="#888" stroke-width="1" opacity="1"/><line transform="translate(0,291)" x2="-5" y2="0" stroke="#888" stroke-width="1" opacity="1"/><line transform="translate(0,255)" x2="-5" y2="0" stroke="#888" stroke-width="1" opacity="1"/><line transform="translate(0,218)" x2="-5" y2="0" stroke="#888" stroke-width="1" opacity="1"/><line transform="translate(0,182)" x2="-5" y2="0" stroke="#888" stroke-width="1" opacity="1"/><line transform="translate(0,145)" x2="-5" y2="0" stroke="#888" stroke-width="1" opacity="1"/><line transform="translate(0,109)" x2="-5" y2="0" stroke="#888" stroke-width="1" opacity="1"/><line transform="translate(0,73)" x2="-5" y2="0" stroke="#888" stroke-width="1" opacity="1"/><line transform="translate(0,36)" x2="-5" y2="0" stroke="#888" stroke-width="1" opacity="1"/><line transform="translate(0,0)" x2="-5" y2="0" stroke="#888" stroke-width="1" opacity="1"/></g><g class="mark-text role-axis-label" pointer-events="none"><text text-anchor="end" transform="translate(-7,403)" font-family="sans-serif" font-size="10px" fill="#000" opacity="1">0</text><text text-anchor="end" transform="translate(-7,366.6363636363636)" font-family="sans-serif" font-size="10px" fill="#000" opacity="1">2,000</text><text text-anchor="end" transform="translate(-7,330.27272727272725)" font-family="sans-serif" font-size="10px" fill="#000" opacity="1">4,000</text><text text-anchor="end" transform="translate(-7,293.90909090909093)" font-family="sans-serif" font-size="10px" fill="#000" opacity="1">6,000</text><text text-anchor="end" transform="translate(-7,257.5454545454545)" font-family="sans-serif" font-size="10px" fill="#000" opacity="1">8,000</text><text text-anchor="end" transform="translate(-7,221.18181818181816)" font-family="sans-serif" font-size="10px" fill="#000" opacity="1">10,000</text><text text-anchor="end" transform="translate(-7,184.81818181818184)" font-family="sans-serif" font-size="10px" fill="#000" opacity="1">12,000</text><text text-anchor="end" transform="translate(-7,148.45454545454547)" font-family="sans-serif" font-size="10px" fill="#000" opacity="1">14,000</text><text text-anchor="end" transform="translate(-7,112.09090909090908)" font-family="sans-serif" font-size="10px" fill="#000" opacity="1">16,000</text><text text-anchor="end" transform="translate(-7,75.7272727272727)" font-family="sans-serif" font-size="10px" fill="#000" opacity="1">18,000</text><text text-anchor="end" transform="translate(-7,39.363636363636374)" font-family="sans-serif" font-size="10px" fill="#000" opacity="1">20,000</text><text text-anchor="end" transform="translate(-7,3)" font-family="sans-serif" font-size="10px" fill="#000" opacity="1">22,000</text></g><g class="mark-rule role-axis-domain" pointer-events="none"><line transform="translate(0,400)" x2="0" y2="-400" stroke="#888" stroke-width="1" opacity="1"/></g><g class="mark-text role-axis-title" pointer-events="none"><text text-anchor="middle" transform="translate(-41.5859375,200) rotate(-90) translate(0,-2)" font-family="sans-serif" font-size="11px" font-weight="bold" fill="#000" opacity="1">Number of Unique Names</text></g></g><path class="foreground" aria-hidden="true" d="" pointer-events="none" display="none"/></g></g><g class="mark-group role-scope pathgroup" role="graphics-object" aria-roledescription="group mark container"><g transform="translate(0,0)"><path class="background" aria-hidden="true" d="M0,0h600v400h-600Z"/><g><g class="mark-line role-mark marks" role="graphics-symbol" aria-roledescription="line mark container"><path d="M0,382.873L4.204,382.945L8.397,381.309L12.59,380.836L16.783,378.691L20.988,378.236L25.181,376.691L29.374,376.255L33.567,373.2L37.771,373.109L41.964,372.109L46.157,372.127L50.35,369.8L54.555,369.964L58.748,369.055L62.941,367.127L67.134,366.818L71.338,367.291L75.531,364.091L79.724,366.509L83.917,359.582L88.11,364.673L92.303,362.873L96.496,362.127L100.689,360.636L104.894,359.382L109.087,359.636L113.28,356.382L117.473,355.745L121.677,353.673L125.87,349.273L130.063,347.855L134.256,337.364L138.461,332.6L142.654,323.527L146.847,309.691L151.04,306.164L155.244,303.455L159.437,298.455L163.63,298.927L167.823,295.145L172.028,293.273L176.221,294.745L180.414,295.655L184.607,292.727L188.811,295.073L193.004,297.782L197.197,298.145L201.39,301.091L205.595,304.055L209.788,304.6L213.981,309.491L218.174,307.309L222.378,311.673L226.571,309.582L230.764,311.036L234.957,311.709L239.162,310.364L243.355,309.182L247.547,310L251.74,308.618L255.945,307.564L260.138,302.218L264.331,302.4L268.524,304.673L272.728,304.691L276.921,296.618L281.114,289.018L285.307,290.164L289.512,289.673L293.705,288.891L297.898,287.036L302.091,283.836L306.295,281.873L310.488,279.545L314.681,277.636L318.874,274.727L323.079,272.436L327.272,272.127L331.465,269.145L335.658,266.764L339.862,263.055L344.055,262.055L348.248,260.691L352.441,258.091L356.646,263.036L360.839,261.418L365.032,257.236L369.225,250.964L373.429,241.673L377.622,229.927L381.815,224.618L386.008,224.291L390.213,221.691L394.406,213.691L398.599,206.964L402.792,201.636L406.996,194.036L411.189,191.4L415.382,182.345L419.575,178.873L423.779,178.291L427.972,175.818L432.165,180.527L436.358,178.545L440.563,172.636L444.756,166.673L448.949,158.836L453.142,147.6L457.346,135.455L461.539,123.018L465.732,118.8L469.925,116.145L474.13,112.745L478.323,113.527L482.516,113.582L486.709,111.036L490.913,106.145L495.106,98.182L499.299,91.873L503.492,78.927L507.697,73.164L511.89,71.182L516.083,64.782L520.276,57.6L524.48,51.018L528.673,35.255L532.866,25.8L537.059,27.727L541.264,32.818L545.457,39.4L549.65,43.927L553.843,44.964L558.047,49.6L562.24,50.436L566.433,52.255L570.626,56.909L574.831,64.8L579.024,70.164L583.217,72.582L587.41,81.745L591.614,79.109L595.807,77.618L600,81.218" stroke="#4c78a8" stroke-width="2"/></g></g><path class="foreground" aria-hidden="true" d="" display="none"/></g><g transform="translate(0,0)"><path class="background" aria-hidden="true" d="M0,0h600v400h-600Z"/><g><g class="mark-line role-mark marks" role="graphics-symbol" aria-roledescription="line mark container"><path d="M0,380.764L4.204,381.891L8.397,380.018L12.59,381.273L16.783,379.545L20.988,380.055L25.181,379.818L29.374,380.6L33.567,378.6L37.771,379.8L41.964,378.891L46.157,379.509L50.35,377.091L54.555,378.564L58.748,377.473L62.941,377.436L67.134,376.982L71.338,377.655L75.531,376.564L79.724,378.182L83.917,372.618L88.11,378L92.303,376L96.496,376.255L100.689,374.636L104.894,374.164L109.087,374.309L113.28,371.836L117.473,371.2L121.677,369.473L125.87,366.564L130.063,363.655L134.256,347.182L138.461,340.709L142.654,331.655L146.847,320.182L151.04,317.545L155.244,316.327L159.437,312.491L163.63,312.545L167.823,309.291L172.028,309.364L176.221,309.691L180.414,310.836L184.607,309.636L188.811,311.509L193.004,312.055L197.197,312.709L201.39,314.127L205.595,317.364L209.788,317.418L213.981,321.436L218.174,322.145L222.378,324.436L226.571,323.527L230.764,324.636L234.957,326.6L239.162,326.909L243.355,326.636L247.547,327.855L251.74,328.418L255.945,327.236L260.138,326.473L264.331,326.545L268.524,328.927L272.728,331.218L276.921,326.945L281.114,322.418L285.307,323.655L289.512,323.564L293.705,323.727L297.898,322.673L302.091,322.618L306.295,321.091L310.488,320.727L314.681,319.964L318.874,319.036L323.079,317.2L327.272,318.091L331.465,316.873L335.658,316.418L339.862,315.418L344.055,315.855L348.248,315.982L352.441,316.491L356.646,319.545L360.839,317.455L365.032,317.255L369.225,313.709L373.429,308.309L377.622,301.273L381.815,297.145L386.008,295.436L390.213,293.164L394.406,290.855L398.599,284.8L402.792,281.909L406.996,275.273L411.189,277.091L415.382,271.455L419.575,267.382L423.779,267.491L427.972,266.018L432.165,266.491L436.358,266.582L440.563,262.055L444.756,257.655L448.949,251.782L453.142,245.6L457.346,232.164L461.539,227.509L465.732,224.582L469.925,221.455L474.13,215.109L478.323,213.764L482.516,212.182L486.709,208.473L490.913,203.4L495.106,194.364L499.299,188.891L503.492,179.673L507.697,176.273L511.89,172.945L516.083,168.018L520.276,159.491L524.48,156.945L528.673,144.709L532.866,138.291L537.059,134.182L541.264,135.745L545.457,140.582L549.65,138.964L553.843,140.927L558.047,144.291L562.24,144.055L566.433,144.4L570.626,141.782L574.831,140.891L579.024,143.582L583.217,143.309L587.41,144.618L591.614,144L595.807,139.8L600,142.745" stroke="#f58518" stroke-width="2"/></g></g><path class="foreground" aria-hidden="true" d="" display="none"/></g></g><g class="mark-group role-legend" role="graphics-symbol" aria-roledescription="legend" aria-label="Symbol legend titled 'Sex' for stroke color with 2 values: F, M"><g transform="translate(620,0)"><path class="background" aria-hidden="true" d="M0,0h25v40h-25Z" pointer-events="none"/><g><g class="mark-group role-legend-entry"><g transform="translate(0,16)"><path class="background" aria-hidden="true" d="M0,0h0v0h0Z" pointer-events="none"/><g><g class="mark-group role-scope" role="graphics-object" aria-roledescription="group mark container"><g transform="translate(0,0)"><path class="background" aria-hidden="true" d="M0,0h24.330078125v11h-24.330078125Z" pointer-events="none" opacity="1"/><g><g class="mark-symbol role-legend-symbol" pointer-events="none"><path transform="translate(6,6)" d="M-5,0L5,0" stroke="#4c78a8" stroke-width="1.5" opacity="1"/></g><g class="mark-text role-legend-label" pointer-events="none"><text text-anchor="start" transform="translate(16,9)" font-family="sans-serif" font-size="10px" fill="#000" opacity="1">F</text></g></g><path class="foreground" aria-hidden="true" d="" pointer-events="none" display="none"/></g><g transform="translate(0,13)"><path class="background" aria-hidden="true" d="M0,0h24.330078125v11h-24.330078125Z" pointer-events="none" opacity="1"/><g><g class="mark-symbol role-legend-symbol" pointer-events="none"><path transform="translate(6,6)" d="M-5,0L5,0" stroke="#f58518" stroke-width="1.5" opacity="1"/></g><g class="mark-text role-legend-label" pointer-events="none"><text text-anchor="start" transform="translate(16,9)" font-family="sans-serif" font-size="10px" fill="#000" opacity="1">M</text></g></g><path class="foreground" aria-hidden="true" d="" pointer-events="none" display="none"/></g></g></g><path class="foreground" aria-hidden="true" d="" pointer-events="none" display="none"/></g></g><g class="mark-text role-legend-title" pointer-events="none"><text text-anchor="start" transform="translate(0,9)" font-family="sans-serif" font-size="11px" font-weight="bold" fill="#000" opacity="1">Sex</text></g></g><path class="foreground" aria-hidden="true" d="" pointer-events="none" display="none"/></g></g></g><path class="foreground" aria-hidden="true" d="" display="none"/></g></g></g></svg>