<svg xmlns="http://www.w3.org/2000/svg" xmlns:xlink="http://www.w3.org/1999/xlink" version="1.1" class="marks" width="742" height="464" viewBox="0 0 742 464"><rect width="742" height="464" fill="white"/><g fill="none" stroke-miterlimit="10" transform="translate(64,27)"><g class="mark-group role-frame root" role="graphics-object" aria-roledescription="group mark container"><g transform="translate(0,0)"><path class="background" aria-hidden="true" d="M0.5,0.5h600v400h-600Z" stroke="#ddd"/><g><g class="mark-group role-axis" aria-hidden="true"><g transform="translate(0.5,400.5)"><path class="background" aria-hidden="true" d="M0,0h0v0h0Z" pointer-events="none"/><g><g class="mark-rule role-axis-grid" pointer-events="none"><line transform="translate(0,-400)" x2="0" y2="400" stroke="#ddd" stroke-width="1" opacity="1"/><line transform="translate(42,-400)" x2="0" y2="400" stroke="#ddd" stroke-width="1" opacity="1"/><line transform="translate(84,-400)" x2="0" y2="400" stroke="#ddd" stroke-width="1" opacity="1"/><line transform="translate(126,-400)" x2="0" y2="400" stroke="#ddd" stroke-width="1" opacity="1"/><line transform="translate(168,-400)" x2="0" y2="400" stroke="#ddd" stroke-width="1" opacity="1"/><line transform="translate(210,-400)" x2="0" y2="400" stroke="#ddd" stroke-width="1" opacity="1"/><line transform="translate(252,-400)" x2="0" y2="400" stroke="#ddd" stroke-width="1" opacity="1"/><line transform="translate(294,-400)" x2="0" y2="400" stroke="#ddd" stroke-width="1" opacity="1"/><line transform="translate(336,-400)" x2="0" y2="400" stroke="#ddd" stroke-width="1" opacity="1"/><line transform="translate(378,-400)" x2="0" y2="400" stroke="#ddd" stroke-width="1" opacity="1"/><line transform="translate(420,-400)" x2="0" y2="400" stroke="#ddd" stroke-width="1" opacity="1"/><line transform="translate(462,-400)" x2="0" y2="400" stroke="#ddd" stroke-width="1" opacity="1"/><line transform="translate(503,-400)" x2="0" y2="400" stroke="#ddd" stroke-width="1" opacity="1"/><line transform="translate(545,-400)" x2="0" y2="400" stroke="#ddd" stroke-width="1" opacity="1"/><line transform="translate(587,-400)" x2="0" y2="400" stroke="#ddd" stroke-width="1" opacity="1"/></g></g><path class="foreground" aria-hidden="true" d="" pointer-events="none" display="none"/></g></g><g class="mark-group role-axis" aria-hidden="true"><g transform="translate(0.5,0.5)"><path class="background" aria-hidden="true" d="M0,0h0v0h0Z" pointer-events="none"/><g><g class="mark-rule role-axis-grid" pointer-events="none"><line transform="translate(0,400)" x2="600" y2="0" stroke="#ddd" stroke-width="1" opacity="1"/><line transform="translate(0,360)" x2="600" y2="0" stroke="#ddd" stroke-width="1" opacity="1"/><line transform="translate(0,320)" x2="600" y2="0" stroke="#ddd" stroke-width="1" opacity="1"/><line transform="translate(0,280)" x2="600" y2="0" stroke="#ddd" stroke-width="1" opacity="1"/><line transform="translate(0,240)" x2="600" y2="0" stroke="#ddd" stroke-width="1" opacity="1"/><line transform="translate(0,200)" x2="600" y2="0" stroke="#ddd" stroke-width="1" opacity="1"/><line transform="translate(0,160)" x2="600" y2="0" stroke="#ddd" stroke-width="1" opacity="1"/><line transform="translate(0,120)" x2="600" y2="0" stroke="#ddd" stroke-width="1" opacity="1"/><line transform="translate(0,80)" x2="600" y2="0" stroke="#ddd" stroke-width="1" opacity="1"/><line transform="translate(0,40)" x2="600" y2="0" stroke="#ddd" stroke-width="1" opacity="1"/><line transform="translate(0,0)" x2="600" y2="0" stroke="#ddd" stroke-width="1" opacity="1"/></g></g><path class="foreground" aria-hidden="true" d="" pointer-events="none" display="none"/></g></g><g class="mark-group role-axis" role="graphics-symbol" aria-roledescription="axis" aria-label="X-axis titled 'Year' for a time scale with values from 1880 to 2023"><g transform="translate(0.5,400.5)"><path class="background" aria-hidden="true" d="M0,0h0v0h0Z" pointer-events="none"/><g><g class="mark-rule role-axis-tick" pointer-events="none"><line transform="translate(0,0)" x2="0" y2="5" stroke="#888" stroke-width="1" opacity="1"/><line transform="translate(42,0)" x2="0" y2="5" stroke="#888" stroke-width="1" opacity="1"/><line transform="translate(84,0)" x2="0" y2="5" stroke="#888" stroke-width="1" opacity="1"/><line transform="translate(126,0)" x2="0" y2="5" stroke="#888" stroke-width="1" opacity="1"/><line transform="translate(168,0)" x2="0" y2="5" stroke="#888" stroke-width="1" opacity="1"/><line transform="translate(210,0)" x2="0" y2="5" stroke="#888" stroke-width="1" opacity="1"/><line transform="translate(252,0)" x2="0" y2="5" stroke="#888" stroke-width="1" opacity="1"/><line transform="translate(294,0)" x2="0" y2="5" stroke="#888" stroke-width="1" opacity="1"/><line transform="translate(336,0)" x2="0" y2="5" stroke="#888" stroke-width="1" opacity="1"/><line transform="translate(378,0)" x2="0" y2="5" stroke="#888" stroke-width="1" opacity="1"/><line transform="translate(420,0)" x2="0" y2="5" stroke="#888" stroke-width="1" opacity="1"/><line transform="translate(462,0)" x2="0" y2="5" stroke="#888" stroke-width="1" opacity="1"/><line transform="translate(503,0)" x2="0" y2="5" stroke="#888" stroke-width="1" opacity="1"/><line transform="translate(545,0)" x2="0" y2="5" stroke="#888" stroke-width="1" opacity="1"/><line transform="translate(587,0)" x2="0" y2="5" stroke="#888" stroke-width="1" opacity="1"/></g><g class="mark-text role-axis-label" pointer-events="none"><text text-anchor="start" transform="translate(0,15)" font-family="sans-serif" font-size="10px" fill="#000" opacity="1">1880</text><text text-anchor="middle" transform="translate(41.96437501259494,15)" font-family="sans-serif" font-size="10px" fill="#000" opacity="1">1890</text><text text-anchor="middle" transform="translate(83.9172623780471,15)" font-family="sans-serif" font-size="10px" fill="#000" opacity="1">1900</text><text text-anchor="middle" transform="translate(125.87014974349925,15)" font-family="sans-serif" font-size="10px" fill="#000" opacity="1">1910</text><text text-anchor="middle" transform="translate(167.82303710895144,15)" font-family="sans-serif" font-size="10px" fill="#000" opacity="1">1920</text><text text-anchor="middle" transform="translate(209.78760185386668,15)" font-family="sans-serif" font-size="10px" fill="#000" opacity="1">1930</text><text text-anchor="middle" transform="translate(251.74048921931882,15)" font-family="sans-serif" font-size="10px" fill="#000" opacity="1">1940</text><text text-anchor="middle" transform="translate(293.70486423191375,15)" font-family="sans-serif" font-size="10px" fill="#000" opacity="1">1950</text><text text-anchor="middle" transform="translate(335.6577515973659,15)" font-family="sans-serif" font-size="10px" fill="#000" opacity="1">1960</text><text text-anchor="middle" transform="translate(377.62212660996084,15)" font-family="sans-serif" font-size="10px" fill="#000" opacity="1">1970</text><text text-anchor="middle" transform="translate(419.575013975413,15)" font-family="sans-serif" font-size="10px" fill="#000" opacity="1">1980</text><text text-anchor="middle" transform="translate(461.539388988008,15)" font-family="sans-serif" font-size="10px" fill="#000" opacity="1">1990</text><text text-anchor="middle" transform="translate(503.4922763534601,15)" font-family="sans-serif" font-size="10px" fill="#000" opacity="1">2000</text><text text-anchor="middle" transform="translate(545.4566513660551,15)" font-family="sans-serif" font-size="10px" fill="#000" opacity="1">2010</text><text text-anchor="middle" transform="translate(587.4095387315073,15)" font-family="sans-serif" font-size="10px" fill="#000" opacity="1">2020</text></g><g class="mark-rule role-axis-domain" pointer-events="none"><line transform="translate(0,0)" x2="600" y2="0" stroke="#888" stroke-width="1" opacity="1"/></g><g class="mark-text role-axis-title" pointer-events="none"><text text-anchor="middle" transform="translate(300,30)" font-family="sans-serif" font-size="11px" font-weight="bold" fill="#000" opacity="1">Year</text></g></g><path class="foreground" aria-hidden="true" d="" pointer-events="none" display="none"/></g></g><g class="mark-group role-axis" role="graphics-symbol" aria-roledescription="axis" aria-label="Y-axis titled 'Count' for a linear scale with values from 0 to 100,000"><g transform="translate(0.5,0.5)"><path class="background" aria-hidden="true" d="M0,0h0v0h0Z" pointer-events="none"/><g><g class="mark-rule role-axis-tick" pointer-events="none"><line transform="translate(0,400)" x2="-5" y2="0" stroke="#888" stroke-width="1" opacity="1"/><line transform="translate(0,360)" x2="-5" y2="0" stroke="#888" stroke-width="1" opacity="1"/><line transform="translate(0,320)" x2="-5" y2="0" stroke="#888" stroke-width="1" opacity="1"/><line transform="translate(0,280)" x2="-5" y2="0" stroke="#888" stroke-width="1" opacity="1"/><line transform="translate(0,240)" x2="-5" y2="0" stroke="#888" stroke-width="1" opacity="1"/><line transform="translate(0,200)" x2="-5" y2="0" stroke="#888" stroke-width="1" opacity="1"/><line transform="translate(0,160)" x2="-5" y2="0" stroke="#888" stroke-width="1" opacity="1"/><line transform="translate(0,120)" x2="-5" y2="0" stroke="#888" stroke-width="1" opacity="1"/><line transform="translate(0,80)" x2="-5" y2="0" stroke="#888" stroke-width="1" opacity="1"/><line transform="translate(0,40)" x2="-5" y2="0" stroke="#888" stroke-width="1" opacity="1"/><line transform="translate(0,0)" x2="-5" y2="0" stroke="#888" stroke-width="1" opacity="1"/></g><g class="mark-text role-axis-label" pointer-events="none"><text text-anchor="end" transform="translate(-7,403)" font-family="sans-serif" font-size="10px" fill="#000" opacity="1">0</text><text text-anchor="end" transform="translate(-7,363)" font-family="sans-serif" font-size="10px" fill="#000" opacity="1">10,000</text><text text-anchor="end" transform="translate(-7,323)" font-family="sans-serif" font-size="10px" fill="#000" opacity="1">20,000</text><text text-anchor="end" transform="translate(-7,283)" font-family="sans-serif" font-size="10px" fill="#000" opacity="1">30,000</text><text text-anchor="end" transform="translate(-7,243)" font-family="sans-serif" font-size="10px" fill="#000" opacity="1">40,000</text><text text-anchor="end" transform="translate(-7,203)" font-family="sans-serif" font-size="10px" fill="#000" opacity="1">50,000</text><text text-anchor="end" transform="translate(-7,163)" font-family="sans-serif" font-size="10px" fill="#000" opacity="1">60,000</text><text text-anchor="end" transform="translate(-7,123.00000000000001)" font-family="sans-serif" font-size="10px" fill="#000" opacity="1">70,000</text><text text-anchor="end" transform="translate(-7,82.99999999999999)" font-family="sans-serif" font-size="10px" fill="#000" opacity="1">80,000</text><text text-anchor="end" transform="translate(-7,42.99999999999999)" font-family="sans-serif" font-size="10px" fill="#000" opacity="1">90,000</text><text text-anchor="end" transform="translate(-7,3)" font-family="sans-serif" font-size="10px" fill="#000" opacity="1">100,000</text></g><g class="mark-rule role-axis-domain" pointer-events="none"><line transform="translate(0,400)" x2="0" y2="-400" stroke="#888" stroke-width="1" opacity="1"/></g><g class="mark-text role-axis-title" pointer-events="none"><text text-anchor="middle" transform="translate(-47.1474609375,200) rotate(-90) translate(0,-2)" font-family="sans-serif" font-size="11px" font-weight="bold" fill="#000" opacity="1">Count</text></g></g><path class="foreground" aria-hidden="true" d="" pointer-events="none" display="none"/></g></g><g class="mark-group role-scope pathgroup" role="graphics-object" aria-roledescription="group mark container"><g transform="translate(0,0)"><path class="background" aria-hidden="true" d="M0,0h600v400h-600Z"/><g><g class="mark-line role-mark marks" role="graphics-symbol" aria-roledescription="line mark container"><path d="M0,378.608L4.204,381.456L8.397,379.636L12.59,380.696L16.783,380.792L20.988,381.604L25.181,381.868L29.374,383.876L33.567,381.636L37.771,383.204L41.964,383.756L46.157,385.44L50.35,382.724L54.555,385.108L58.748,384.848L62.941,385.468L67.134,385.444L71.338,386.636L75.531,385.772L79.724,387.412L83.917,383.608L88.11,387.804L92.303,386.556L96.496,387.148L100.689,386.376L104.894,385.568L109.087,385.572L113.28,384.464L117.473,384.284L121.677,383.884L125.87,380.864L130.063,377.1L134.256,355.72L138.461,347.24L142.654,332.252L146.847,312.16L151.04,305.552L155.244,303.428L159.437,292.316L163.63,299.232L167.823,286.764L172.028,283.032L176.221,284.644L180.414,284.136L184.607,278.156L188.811,281.684L193.004,281.916L197.197,272.236L201.39,275.028L205.595,280.284L209.788,272.532L213.981,280.268L218.174,275.632L222.378,284.04L226.571,280.836L230.764,280.072L234.957,283.608L239.162,277.916L243.355,275.392L247.547,276.864L251.74,273.256L255.945,269.032L260.138,256.584L264.331,253.488L268.524,261.352L272.728,270.136L276.921,247.148L281.114,236.904L285.307,245.28L289.512,239.812L293.705,243.616L297.898,242.372L302.091,244.516L306.295,246.34L310.488,250.14L314.681,258.548L318.874,259.036L323.079,262.892L327.272,271.028L331.465,276.824L335.658,281.34L339.862,283.212L344.055,289.668L348.248,292.944L352.441,296.384L356.646,306.008L360.839,310.988L365.032,314.836L369.225,313.716L373.429,313.332L377.622,310.352L381.815,320.596L386.008,332.128L390.213,336.992L394.406,339.412L398.599,341.684L402.792,344.312L406.996,341.032L411.189,340.612L415.382,340.76L419.575,340.16L423.779,342.292L427.972,342.756L432.165,347.148L436.358,348.228L440.563,348.408L444.756,349.504L448.949,351.3L453.142,351.576L457.346,351.012L461.539,352.004L465.732,354.672L469.925,358.128L474.13,360.576L478.323,363.932L482.516,366.088L486.709,367.012L490.913,369.384L495.106,368.608L499.299,369.9L503.492,369.904L507.697,370.868L511.89,371.168L516.083,369.224L520.276,369.392L524.48,368.276L528.673,367.948L532.866,370.196L537.059,370.856L541.264,370.868L545.457,371.584L549.65,372.064L553.843,372.224L558.047,371.904L562.24,370.564L566.433,371.188L570.626,371.5L574.831,371.26L579.024,373.368L583.217,374.392L587.41,375.044L591.614,376.012L595.807,376.288L600,378.42" stroke="#4c78a8" stroke-width="2"/></g></g><path class="foreground" aria-hidden="true" d="" display="none"/></g><g transform="translate(0,0)"><path class="background" aria-hidden="true" d="M0,0h600v400h-600Z"/><g><g class="mark-line role-mark marks" role="graphics-symbol" aria-roledescription="line mark container"><path d="M0,396.524L4.204,397L8.397,396.648L12.59,397.064L16.783,396.956L20.988,397.152L25.181,397.304L29.374,397.308L33.567,396.796L37.771,396.972L41.964,397.076L46.157,397.308L50.35,396.748L54.555,397.104L58.748,397.084L62.941,397.172L67.134,396.94L71.338,397.08L75.531,396.74L79.724,397.416L83.917,396.468L88.11,397.312L92.303,396.956L96.496,397.136L100.689,396.732L104.894,396.648L109.087,396.488L113.28,396.22L117.473,395.936L121.677,395.624L125.87,394.968L130.063,393.776L134.256,388.568L138.461,386.872L142.654,382.996L146.847,378.424L151.04,376.752L155.244,375.604L159.437,373.492L163.63,373.136L167.823,370.224L172.028,368.94L176.221,368.54L180.414,367.08L184.607,364.968L188.811,364.34L193.004,363.836L197.197,362.296L201.39,360.032L205.595,354.796L209.788,350.9L213.981,352.868L218.174,351.448L222.378,351.888L226.571,343.988L230.764,337.348L234.957,330.092L239.162,316.096L243.355,308.016L247.547,298.56L251.74,289.24L255.945,277.792L260.138,256.384L264.331,251.04L268.524,250.476L272.728,251.572L276.921,214.22L281.114,168.776L285.307,173.512L289.512,161.552L293.705,157.088L297.898,140.848L302.091,112.98L306.295,95.524L310.488,81.748L314.681,54.8L318.874,73.408L323.079,70.392L327.272,69.296L331.465,64.272L335.658,56.316L339.862,60.82L344.055,74.728L348.248,86.2L352.441,99.836L356.646,128.692L360.839,134.328L365.032,132.764L369.225,145.276L373.429,145.308L377.622,153.08L381.815,187.532L386.008,214.676L390.213,235.648L394.406,232.836L398.599,243.376L402.792,242.912L406.996,237.932L411.189,237.252L415.382,231.752L419.575,232.424L423.779,237.456L427.972,238.18L432.165,243.176L436.358,246.044L440.563,245.888L444.756,251.416L448.949,252.812L453.142,258.692L457.346,259.116L461.539,265.024L465.732,278.332L469.925,286.308L474.13,291.848L478.323,300.516L482.516,307.82L486.709,307.916L490.913,312.416L495.106,316.436L499.299,318.592L503.492,320.856L507.697,322.552L511.89,325.2L516.083,325.448L520.276,326.388L524.48,327.452L528.673,329.368L532.866,329.752L537.059,334.632L541.264,338.188L545.457,343.116L549.65,346.996L553.843,349.78L558.047,350.436L562.24,351L566.433,352.684L570.626,355.424L574.831,359.056L579.024,360.776L583.217,364.088L587.41,367.004L591.614,368.332L595.807,368.776L600,370.584" stroke="#f58518" stroke-width="2"/></g></g><path class="foreground" aria-hidden="true" d="" display="none"/></g><g transform="translate(0,0)"><path class="background" aria-hidden="true" d="M0,0h600v400h-600Z"/><g><g class="mark-line role-mark marks" role="graphics-symbol" aria-roledescription="line mark container"><path d="M0,376.292L4.204,378.236L8.397,376.432L12.59,379.108L16.783,377.228L20.988,379.3L25.181,378.58L29.374,380.928L33.567,377.752L37.771,379.92L41.964,379.612L46.157,381.936L50.35,378.408L54.555,379.88L58.748,379.56L62.941,378.66L67.134,379.176L71.338,379.548L75.531,378.716L79.724,381.612L83.917,371.02L88.11,381.06L92.303,377.632L96.496,378.084L100.689,376.58L104.894,375.832L109.087,376.368L113.28,373.172L117.473,371.952L121.677,369.62L125.87,363.224L130.063,360.192L134.256,329.424L138.461,316.672L142.654,294.948L146.847,264.908L151.04,257.728L155.244,250.648L159.437,231.54L163.63,230.432L167.823,208.368L172.028,201L176.221,200.788L180.414,198.148L184.607,188.236L188.811,189.276L193.004,187.22L197.197,185.292L201.39,188.996L205.595,191.468L209.788,184.168L213.981,195.132L218.174,192.292L222.378,195.564L226.571,182.928L230.764,179.984L234.957,181.224L239.162,173.752L243.355,163.6L247.547,161.456L251.74,150.08L255.945,132.996L260.138,91.304L264.331,78.9L268.524,92.176L272.728,102.156L276.921,50.248L281.114,20.956L285.307,45.584L289.512,52.568L293.705,55.1L297.898,50.992L302.091,51.74L306.295,55.704L310.488,54.772L314.681,63.268L318.874,60.4L323.079,62.636L327.272,84.924L331.465,85.54L335.658,92.74L339.862,96.172L344.055,109.82L348.248,114.836L352.441,107.892L356.646,129.296L360.839,139.356L365.032,153.26L369.225,157.344L373.429,160.4L377.622,153.048L381.815,181.588L386.008,211.736L390.213,228.644L394.406,234.66L398.599,241.712L402.792,246.796L406.996,239.836L411.189,240.396L415.382,242.588L419.575,242.752L423.779,246.848L427.972,244.496L432.165,254.624L436.358,256.552L440.563,256.556L444.756,263.788L448.949,269.36L453.142,269.92L457.346,269.136L461.539,270.568L465.732,277.948L469.925,285.976L474.13,294.992L478.323,300.9L482.516,309.076L486.709,315.348L490.913,318.38L495.106,321.252L499.299,325.78L503.492,328.036L507.697,331.708L511.89,332.132L516.083,332.42L520.276,334.128L524.48,335.44L528.673,334.988L532.866,336.112L537.059,339.248L541.264,343.128L545.457,344.408L549.65,346.92L553.843,346.18L558.047,345.64L562.24,342.156L566.433,340.564L570.626,340.348L574.831,342.584L579.024,345.44L583.217,347.264L587.41,350.496L591.614,350.192L595.807,351.644L600,353.32" stroke="#e45756" stroke-width="2"/></g></g><path class="foreground" aria-hidden="true" d="" display="none"/></g><g transform="translate(0,0)"><path class="background" aria-hidden="true" d="M0,0h600v400h-600Z"/><g><g class="mark-line role-mark marks" role="graphics-symbol" aria-roledescription="line mark container"><path d="M0,361.38L4.204,364.928L8.397,361.772L12.59,364.424L16.783,362.448L20.988,364.976L25.181,363.896L29.374,367.56L33.567,363.012L37.771,365.808L41.964,365.992L46.157,369.28L50.35,363.844L54.555,367.804L58.748,367.052L62.941,366.72L67.134,367.448L71.338,369.8L75.531,367.364L79.724,372.04L83.917,360.684L88.11,372.4L92.303,368.372L96.496,369.568L100.689,367.568L104.894,367.764L109.087,366.944L113.28,364.068L117.473,362.628L121.677,361.64L125.87,354.2L130.063,346.216L134.256,301.652L138.461,282.684L142.654,248.212L146.847,209.696L151.04,199.828L155.244,192.592L159.437,173.768L163.63,185.908L167.823,172.348L172.028,167.14L176.221,170.876L180.414,170.132L184.607,163.792L188.811,171.216L193.004,175.568L197.197,176.208L201.39,184.96L205.595,191.548L209.788,190.22L213.981,206.312L218.174,205.496L222.378,215.096L226.571,213.044L230.764,209.968L234.957,209.292L239.162,204.992L243.355,197.92L247.547,195.896L251.74,180.86L255.945,169.932L260.138,135.844L264.331,124.288L268.524,133.548L272.728,135.532L276.921,82.952L281.114,46.72L285.307,68.66L289.512,75.3L293.705,82.34L297.898,73.72L302.091,67.456L306.295,79.328L310.488,75.304L314.681,79.52L318.874,76.788L323.079,83.856L327.272,95.76L331.465,94.4L335.658,95.604L339.862,80.196L344.055,86.348L348.248,85.512L352.441,69.932L356.646,113.96L360.839,139.932L365.032,153.588L369.225,156.384L373.429,165.04L377.622,166.024L381.815,193.956L386.008,227.332L390.213,243.328L394.406,249.52L398.599,259.704L402.792,264.076L406.996,263.208L411.189,263.912L415.382,258.34L419.575,258.88L423.779,260.512L427.972,261.196L432.165,267.364L436.358,269.568L440.563,274.012L444.756,279.156L448.949,281.792L453.142,282.312L457.346,280.592L461.539,283.648L465.732,288.784L469.925,294.988L474.13,300.02L478.323,303.276L482.516,307.036L486.709,311.268L490.913,314.456L495.106,317.476L499.299,318.54L503.492,319.552L507.697,324.396L511.89,330.108L516.083,331.016L520.276,334.148L524.48,336.852L528.673,339.304L532.866,342.244L537.059,346.676L541.264,351.476L545.457,353.732L549.65,355.752L553.843,357.468L558.047,357.072L562.24,357.208L566.433,358.336L570.626,359.788L574.831,361.908L579.024,363.22L583.217,364.592L587.41,366.964L591.614,367.292L595.807,368.088L600,369" stroke="#72b7b2" stroke-width="2"/></g></g><path class="foreground" aria-hidden="true" d="" display="none"/></g><g transform="translate(0,0)"><path class="background" aria-hidden="true" d="M0,0h600v400h-600Z"/><g><g class="mark-line role-mark marks" role="graphics-symbol" aria-roledescription="line mark container"><path d="M0,389.472L4.204,390.176L8.397,389.32L12.59,389.94L16.783,389.172L20.988,389.84L25.181,389.624L29.374,390.176L33.567,388.028L37.771,389.084L41.964,389.32L46.157,389.712L50.35,387.744L54.555,388.012L58.748,388.092L62.941,388.032L67.134,387.796L71.338,388.692L75.531,387.316L79.724,389.284L83.917,385.144L88.11,388.936L92.303,387.608L96.496,387.516L100.689,386.836L104.894,386.792L109.087,385.892L113.28,384.624L117.473,383.352L121.677,382.608L125.87,379.088L130.063,374.048L134.256,351.752L138.461,342.116L142.654,324.684L146.847,307.796L151.04,304.468L155.244,300.956L159.437,294.956L163.63,302.936L167.823,297.652L172.028,295.272L176.221,297.204L180.414,297.756L184.607,298.316L188.811,301.548L193.004,304.976L197.197,305.976L201.39,310.724L205.595,315.336L209.788,316.088L213.981,322.692L218.174,325.732L222.378,331.356L226.571,331.56L230.764,331.272L234.957,330.192L239.162,330.712L243.355,329.04L247.547,329.108L251.74,327.176L255.945,320.768L260.138,310.284L264.331,308.696L268.524,315.3L272.728,316.712L276.921,302.868L281.114,289.924L285.307,292.788L289.512,294.384L293.705,291.916L297.898,287.4L302.091,285.956L306.295,282.936L310.488,275.1L314.681,273.668L318.874,269L323.079,272.6L327.272,279.576L331.465,281.892L335.658,281.04L339.862,282.176L344.055,279.66L348.248,279.696L352.441,277.76L356.646,285.452L360.839,292.064L365.032,296.276L369.225,298.424L373.429,295.28L377.622,293.12L381.815,301.936L386.008,310.172L390.213,314.692L394.406,312.664L398.599,311.496L402.792,303.78L406.996,294.052L411.189,293.34L415.382,285.388L419.575,279.264L423.779,276.94L427.972,275.84L432.165,278.208L436.358,277.956L440.563,279.124L444.756,284.664L448.949,285.924L453.142,283.932L457.346,280.472L461.539,279.484L465.732,280.648L469.925,288.396L474.13,291.948L478.323,297.08L482.516,298.604L486.709,300.976L490.913,305.596L495.106,307.26L499.299,307.128L503.492,308.628L507.697,311.896L511.89,312.336L516.083,314.46L520.276,319.432L524.48,323.072L528.673,326.148L532.866,330.576L537.059,333.62L541.264,340.22L545.457,344.596L549.65,348.032L553.843,349.652L558.047,350.904L562.24,351.42L566.433,353.896L570.626,356.172L574.831,358.084L579.024,361.324L583.217,363.352L587.41,366.14L591.614,367.416L595.807,368.756L600,371.052" stroke="#54a24b" stroke-width="2"/></g></g><path class="foreground" aria-hidden="true" d="" display="none"/></g><g transform="translate(0,0)"><path class="background" aria-hidden="true" d="M0,0h600v400h-600Z"/><g><g class="mark-line role-mark marks" role="graphics-symbol" aria-roledescription="line mark container"><path d="M0,398.584L4.204,398.808L8.397,398.716L12.59,398.772L16.783,398.508L20.988,398.52L25.181,398.608L29.374,398.624L33.567,398.136L37.771,398.492L41.964,398.424L46.157,398.668L50.35,398.48L54.555,398.372L58.748,398.308L62.941,398.348L67.134,398.404L71.338,398.528L75.531,398.264L79.724,398.5L83.917,398.02L88.11,398.464L92.303,398.16L96.496,398.136L100.689,398.152L104.894,397.948L109.087,397.876L113.28,397.656L117.473,397.248L121.677,397.46L125.87,396.624L130.063,395.364L134.256,391.584L138.461,389.572L142.654,386.552L146.847,383.68L151.04,383.16L155.244,382.848L159.437,382.816L163.63,384.36L167.823,383.988L172.028,383.208L176.221,384.04L180.414,384.34L184.607,384.504L188.811,384.956L193.004,386.06L197.197,385.576L201.39,385.612L205.595,386.14L209.788,385.832L213.981,386.044L218.174,385.572L222.378,385.804L226.571,383.572L230.764,380.372L234.957,376.8L239.162,371.62L243.355,363.704L247.547,356.684L251.74,347.088L255.945,336.264L260.138,313.084L264.331,301.02L268.524,293.132L272.728,280.392L276.921,235.232L281.114,197.992L285.307,189.736L289.512,159.816L293.705,139.452L297.898,108.788L302.091,83.848L306.295,63.196L310.488,45.748L314.681,46.58L318.874,37.228L323.079,28.892L327.272,37.544L331.465,59.004L335.658,63.388L339.862,52.2L344.055,59.86L348.248,64.912L352.441,69.532L356.646,75.996L360.839,80.052L365.032,70.356L369.225,72.108L373.429,59.352L377.622,58.92L381.815,89.668L386.008,114.456L390.213,128.76L394.406,129.836L398.599,126.312L402.792,132.328L406.996,129.632L411.189,131.46L415.382,129.12L419.575,125.252L423.779,124.94L427.972,127.076L432.165,128.016L436.358,129.032L440.563,140.28L444.756,143.092L448.949,145.348L453.142,143.348L457.346,138.364L461.539,138.748L465.732,156.788L469.925,182.404L474.13,201.752L478.323,222.12L482.516,234.368L486.709,246.524L490.913,249.772L495.106,253.532L499.299,264.348L503.492,271.832L507.697,281.248L511.89,286.972L516.083,291.496L520.276,298.124L524.48,304.696L528.673,309.404L532.866,311.92L537.059,317.42L541.264,324.172L545.457,330.496L549.65,332.716L553.843,335.172L558.047,337.856L562.24,338.028L566.433,342.06L570.626,343.484L574.831,349.14L579.024,353.04L583.217,357.584L587.41,360.724L591.614,363.512L595.807,364.496L600,366.468" stroke="#eeca3b" stroke-width="2"/></g></g><path class="foreground" aria-hidden="true" d="" display="none"/></g><g transform="translate(0,0)"><path class="background" aria-hidden="true" d="M0,0h600v400h-600Z"/><g><g class="mark-line role-mark marks" role="graphics-symbol" aria-roledescription="line mark container"><path d="M0,397.088L4.204,397.436L8.397,397.016L12.59,397.404L16.783,397.004L20.988,397.312L25.181,397.12L29.374,397.512L33.567,396.912L37.771,397.156L41.964,397.028L46.157,397.564L50.35,396.792L54.555,397.072L58.748,396.768L62.941,397.092L67.134,396.664L71.338,397.192L75.531,396.516L79.724,397.024L83.917,395.436L88.11,396.864L92.303,396.368L96.496,396.548L100.689,396.172L104.894,395.868L109.087,395.664L113.28,395.06L117.473,395.024L121.677,394.292L125.87,393.384L130.063,391.88L134.256,383.248L138.461,379.572L142.654,373.324L146.847,363.428L151.04,359.464L155.244,356.344L159.437,350.708L163.63,350.236L167.823,339.96L172.028,334.496L176.221,329.852L180.414,324.452L184.607,315.024L188.811,306.924L193.004,299.428L197.197,292.932L201.39,284.828L205.595,281.712L209.788,271.26L213.981,272.712L218.174,272.764L222.378,274.672L226.571,267.332L230.764,264.212L234.957,266.04L239.162,268.108L243.355,262.452L247.547,258.464L251.74,250.3L255.945,243.564L260.138,225.636L264.331,214.652L268.524,217.44L272.728,215.82L276.921,164.524L281.114,165.864L285.307,196.12L289.512,196.228L293.705,195.984L297.898,181.836L302.091,166.596L306.295,166.44L310.488,171.812L314.681,185.76L318.874,188.376L323.079,190.188L327.272,200.024L331.465,211.272L335.658,225.844L339.862,235.424L344.055,242.372L348.248,236.912L352.441,239.62L356.646,252.676L360.839,262.172L365.032,265.672L369.225,268.1L373.429,275.648L377.622,278.232L381.815,295.376L386.008,310.78L390.213,320.224L394.406,325.456L398.599,329.248L402.792,332.98L406.996,330.236L411.189,333.072L415.382,333.148L419.575,333.38L423.779,332.588L427.972,333.124L432.165,336.432L436.358,337.576L440.563,338.68L444.756,339.952L448.949,342.388L453.142,343.412L457.346,343.464L461.539,345.684L465.732,349.788L469.925,354.688L474.13,359.076L478.323,361.94L482.516,364.868L486.709,367.28L490.913,371.032L495.106,372.184L499.299,373.996L503.492,374.584L507.697,376.916L511.89,378.712L516.083,379.784L520.276,380.608L524.48,381.332L528.673,382.128L532.866,382.3L537.059,383.76L541.264,385.556L545.457,387.048L549.65,387.34L553.843,387.888L558.047,388.808L562.24,388.46L566.433,389.256L570.626,389.908L574.831,390.864L579.024,391.452L583.217,392.044L587.41,392.7L591.614,392.876L595.807,393.28L600,393.448" stroke="#b279a2" stroke-width="2"/></g></g><path class="foreground" aria-hidden="true" d="" display="none"/></g><g transform="translate(0,0)"><path class="background" aria-hidden="true" d="M0,0h600v400h-600Z"/><g><g class="mark-line role-mark marks" role="graphics-symbol" aria-roledescription="line mark container"><path d="M0,390.34L4.204,391.44L8.397,390L12.59,390.664L16.783,390.128L20.988,390.712L25.181,390.228L29.374,391.5L33.567,388.744L37.771,389.948L41.964,389.836L46.157,391.04L50.35,389.16L54.555,389.748L58.748,390.012L62.941,389.46L67.134,389.124L71.338,389.196L75.531,388.272L79.724,389.564L83.917,384.716L88.11,389.828L92.303,387.28L96.496,387.824L100.689,386.344L104.894,386.36L109.087,385.46L113.28,383.92L117.473,383.124L121.677,381.748L125.87,377.564L130.063,373.896L134.256,348.656L138.461,337.264L142.654,315.248L146.847,285.052L151.04,273.036L155.244,259.12L159.437,237.524L163.63,235.9L167.823,205.284L172.028,188.884L176.221,184.816L180.414,175.548L184.607,156.8L188.811,156.42L193.004,155.476L197.197,153.308L201.39,157.2L205.595,160.768L209.788,151.408L213.981,157.924L218.174,162.924L222.378,183.124L226.571,176.644L230.764,173.896L234.957,165.996L239.162,152.636L243.355,150.916L247.547,161.36L251.74,155.228L255.945,143.016L260.138,112.632L264.331,100.448L268.524,116.592L272.728,120.224L276.921,63.44L281.114,33.384L285.307,58.1L289.512,64.508L293.705,65.82L297.898,54.576L302.091,53.648L306.295,55.016L310.488,54.672L314.681,65L318.874,64.344L323.079,72.92L327.272,90.62L331.465,101.928L335.658,110.612L339.862,108.2L344.055,119.252L348.248,119.992L352.441,120.068L356.646,147.556L360.839,162.768L365.032,174.496L369.225,167.276L373.429,166.776L377.622,171.28L381.815,197.472L386.008,227.912L390.213,245.22L394.406,251.952L398.599,258.764L402.792,264.832L406.996,263.136L411.189,266.496L415.382,263.92L419.575,262.932L423.779,262.416L427.972,262.34L432.165,269.02L436.358,272.932L440.563,271.612L444.756,274.608L448.949,279.056L453.142,278.736L457.346,279.716L461.539,284.46L465.732,292.664L469.925,303.628L474.13,310.212L478.323,317.768L482.516,325.664L486.709,329.304L490.913,334.788L495.106,337.892L499.299,341.84L503.492,345.044L507.697,349.34L511.89,351.872L516.083,354.412L520.276,357.28L524.48,359.336L528.673,360.364L532.866,362.46L537.059,364.648L541.264,368.644L545.457,369.748L549.65,372.064L553.843,372.152L558.047,373.116L562.24,373.364L566.433,375.48L570.626,375.988L574.831,377.748L579.024,379.256L583.217,380.604L587.41,382.42L591.614,382.304L595.807,383.716L600,384.772" stroke="#ff9da6" stroke-width="2"/></g></g><path class="foreground" aria-hidden="true" d="" display="none"/></g><g transform="translate(0,0)"><path class="background" aria-hidden="true" d="M0,0h600v400h-600Z"/><g><g class="mark-line role-mark marks" role="graphics-symbol" aria-roledescription="line mark container"><path d="M0,389.864L4.204,390.872L8.397,389.56L12.59,390.736L16.783,389.712L20.988,390.936L25.181,390.652L29.374,391.396L33.567,390.204L37.771,391.068L41.964,391.2L46.157,392.072L50.35,390.348L54.555,391.372L58.748,391.32L62.941,391.388L67.134,391.648L71.338,392.08L75.531,391.356L79.724,392.756L83.917,389.776L88.11,392.72L92.303,391.464L96.496,392.152L100.689,391.772L104.894,391.46L109.087,391.296L113.28,391.304L117.473,390.796L121.677,390.128L125.87,388.596L130.063,386.832L134.256,375.652L138.461,371.616L142.654,364.6L146.847,354.04L151.04,352.008L155.244,349.556L159.437,344.36L163.63,346.264L167.823,340.256L172.028,338.768L176.221,338.956L180.414,336.456L184.607,333.78L188.811,333.248L193.004,333.632L197.197,331.892L201.39,333.676L205.595,334.9L209.788,331.972L213.981,332.612L218.174,332.66L222.378,333.984L226.571,330.52L230.764,329.256L234.957,326.628L239.162,320.916L243.355,314.48L247.547,311.484L251.74,304.036L255.945,293.432L260.138,275.6L264.331,268.504L268.524,273.596L272.728,272.52L276.921,244.5L281.114,220.644L285.307,224.892L289.512,219.212L293.705,217.612L297.898,206.896L302.091,205.412L306.295,211.964L310.488,211.364L314.681,216.58L318.874,220.644L323.079,221.516L327.272,231.656L331.465,238.884L335.658,242.908L339.862,249.748L344.055,253.972L348.248,258.016L352.441,262.216L356.646,273.552L360.839,283.984L365.032,286.988L369.225,290.32L373.429,290.124L377.622,293.308L381.815,307.404L386.008,321.756L390.213,328.304L394.406,330.912L398.599,333.86L402.792,335.508L406.996,333.632L411.189,334.072L415.382,334.164L419.575,329.74L423.779,331.36L427.972,329.648L432.165,329.744L436.358,329.612L440.563,329.584L444.756,330.552L448.949,327.452L453.142,324.776L457.346,326.256L461.539,327.092L465.732,332.856L469.925,338.848L474.13,340.536L478.323,340.364L482.516,343.348L486.709,344.784L490.913,348.404L495.106,348.44L499.299,348.832L503.492,349.444L507.697,351.408L511.89,354.828L516.083,356.264L520.276,357.988L524.48,359.836L528.673,361.944L532.866,364.264L537.059,366.54L541.264,369.096L545.457,371.472L549.65,372.288L553.843,372.584L558.047,372.812L562.24,371.84L566.433,371.192L570.626,370.544L574.831,371.276L579.024,372.664L583.217,373.368L587.41,374.228L591.614,373.284L595.807,374.02L600,373.608" stroke="#9d755d" stroke-width="2"/></g></g><path class="foreground" aria-hidden="true" d="" display="none"/></g><g transform="translate(0,0)"><path class="background" aria-hidden="true" d="M0,0h600v400h-600Z"/><g><g class="mark-line role-mark marks" role="graphics-symbol" aria-roledescription="line mark container"><path d="M0,361.872L4.204,365.904L8.397,362.808L12.59,366.452L16.783,364.412L20.988,367.824L25.181,366.992L29.374,370.12L33.567,365.18L37.771,368.912L41.964,370.024L46.157,372.948L50.35,368.872L54.555,371.108L58.748,370.904L62.941,370.892L67.134,369.012L71.338,371.208L75.531,370.4L79.724,375.656L83.917,365.684L88.11,376.04L92.303,373.532L96.496,374.756L100.689,374.336L104.894,374.02L109.087,373.736L113.28,372.384L117.473,369.884L121.677,368.348L125.87,364.624L130.063,357.628L134.256,321.496L138.461,305.848L142.654,280.988L146.847,245.748L151.04,238.328L155.244,230.312L159.437,218.836L163.63,224.12L167.823,199.416L172.028,192.552L176.221,195.548L180.414,191.456L184.607,185.976L188.811,186.768L193.004,192.316L197.197,194.08L201.39,203.532L205.595,208.748L209.788,210.912L213.981,226.884L218.174,231.492L222.378,243.816L226.571,239.3L230.764,239.2L234.957,242.416L239.162,237.108L243.355,230.28L247.547,231.7L251.74,220.892L255.945,208.832L260.138,180.44L264.331,176.396L268.524,190.516L272.728,199.12L276.921,159.868L281.114,132.016L285.307,152.124L289.512,153.992L293.705,157.284L297.898,148.86L302.091,147.856L306.295,152.684L310.488,154.28L314.681,160.052L318.874,164.032L323.079,172.604L327.272,183L331.465,194.56L335.658,202.576L339.862,207.888L344.055,220.636L348.248,222.2L352.441,223.1L356.646,239.54L360.839,247.052L365.032,249.524L369.225,252.296L373.429,249.56L377.622,244.436L381.815,258.348L386.008,277.948L390.213,287.948L394.406,292.088L398.599,297.756L402.792,302.272L406.996,300.972L411.189,303.3L415.382,301.284L419.575,297.44L423.779,300.792L427.972,297.572L432.165,298.42L436.358,300.4L440.563,301.564L444.756,302.68L448.949,303.196L453.142,303.5L457.346,301.312L461.539,300.372L465.732,304.568L469.925,307.74L474.13,311.124L478.323,314.04L482.516,319.36L486.709,317.824L490.913,319.92L495.106,316.668L499.299,317.136L503.492,317.328L507.697,319.56L511.89,319.46L516.083,320.008L520.276,319.064L524.48,323.764L528.673,324.148L532.866,324.424L537.059,326.4L541.264,328.284L545.457,331.728L549.65,330.572L553.843,332.368L558.047,333.352L562.24,332.612L566.433,336.24L570.626,336.792L574.831,339.876L579.024,341.444L583.217,345.444L587.41,349.352L591.614,351.364L595.807,354.68L600,357.608" stroke="#bab0ac" stroke-width="2"/></g></g><path class="foreground" aria-hidden="true" d="" display="none"/></g></g><g class="mark-group role-legend" role="graphics-symbol" aria-roledescription="legend" aria-label="Symbol legend titled 'Name' for stroke color with 10 values: Charles, David, James, John, Joseph, ending with William"><g transform="translate(620,0)"><path class="background" aria-hidden="true" d="M0,0h53v144h-53Z" pointer-events="none"/><g><g class="mark-group role-legend-entry"><g transform="translate(0,16)"><path class="background" aria-hidden="true" d="M0,0h0v0h0Z" pointer-events="none"/><g><g class="mark-group role-scope" role="graphics-object" aria-roledescription="group mark container"><g transform="translate(0,0)"><path class="background" aria-hidden="true" d="M0,0h52.123046875v11h-52.123046875Z" pointer-events="none" opacity="1"/><g><g class="mark-symbol role-legend-symbol" pointer-events="none"><path transform="translate(6,6)" d="M-5,0L5,0" stroke="#4c78a8" stroke-width="1.5" opacity="1"/></g><g class="mark-text role-legend-label" pointer-events="none"><text text-anchor="start" transform="translate(16,9)" font-family="sans-serif" font-size="10px" fill="#000" opacity="1">Charles</text></g></g><path class="foreground" aria-hidden="true" d="" pointer-events="none" display="none"/></g><g transform="translate(0,13)"><path class="background" aria-hidden="true" d="M0,0h52.123046875v11h-52.123046875Z" pointer-events="none" opacity="1"/><g><g class="mark-symbol role-legend-symbol" pointer-events="none"><path transform="translate(6,6)" d="M-5,0L5,0" stroke="#f58518" stroke-width="1.5" opacity="1"/></g><g class="mark-text role-legend-label" pointer-events="none"><text text-anchor="start" transform="translate(16,9)" font-family="sans-serif" font-size="10px" fill="#000" opacity="1">David</text></g></g><path class="foreground" aria-hidden="true" d="" pointer-events="none" display="none"/></g><g transform="translate(0,26)"><path class="background" aria-hidden="true" d="M0,0h52.123046875v11h-52.123046875Z" pointer-events="none" opacity="1"/><g><g class="mark-symbol role-legend-symbol" pointer-events="none"><path transform="translate(6,6)" d="M-5,0L5,0" stroke="#e45756" stroke-width="1.5" opacity="1"/></g><g class="mark-text role-legend-label" pointer-events="none"><text text-anchor="start" transform="translate(16,9)" font-family="sans-serif" font-size="10px" fill="#000" opacity="1">James</text></g></g><path class="foreground" aria-hidden="true" d="" pointer-events="none" display="none"/></g><g transform="translate(0,39)"><path class="background" aria-hidden="true" d="M0,0h52.123046875v11h-52.123046875Z" pointer-events="none" opacity="1"/><g><g class="mark-symbol role-legend-symbol" pointer-events="none"><path transform="translate(6,6)" d="M-5,0L5,0" stroke="#72b7b2" stroke-width="1.5" opacity="1"/></g><g class="mark-text role-legend-label" pointer-events="none"><text text-anchor="start" transform="translate(16,9)" font-family="sans-serif" font-size="10px" fill="#000" opacity="1">John</text></g></g><path class="foreground" aria-hidden="true" d="" pointer-events="none" display="none"/></g><g transform="translate(0,52)"><path class="background" aria-hidden="true" d="M0,0h52.123046875v11h-52.123046875Z" pointer-events="none" opacity="1"/><g><g class="mark-symbol role-legend-symbol" pointer-events="none"><path transform="translate(6,6)" d="M-5,0L5,0" stroke="#54a24b" stroke-width="1.5" opacity="1"/></g><g class="mark-text role-legend-label" pointer-events="none"><text text-anchor="start" transform="translate(16,9)" font-family="sans-serif" font-size="10px" fill="#000" opacity="1">Joseph</text></g></g><path class="foreground" aria-hidden="true" d="" pointer-events="none" display="none"/></g><g transform="translate(0,65)"><path class="background" aria-hidden="true" d="M0,0h52.123046875v11h-52.123046875Z" pointer-events="none" opacity="1"/><g><g class="mark-symbol role-legend-symbol" pointer-events="none"><path transform="translate(6,6)" d="M-5,0L5,0" stroke="#eeca3b" stroke-width="1.5" opacity="1"/></g><g class="mark-text role-legend-label" pointer-events="none"><text text-anchor="start" transform="translate(16,9)" font-family="sans-serif" font-size="10px" fill="#000" opacity="1">Michael</text></g></g><path class="foreground" aria-hidden="true" d="" pointer-events="none" display="none"/></g><g transform="translate(0,78)"><path class="background" aria-hidden="true" d="M0,0h52.123046875v11h-52.123046875Z" pointer-events="none" opacity="1"/><g><g class="mark-symbol role-legend-symbol" pointer-events="none"><path transform="translate(6,6)" d="M-5,0L5,0" stroke="#b279a2" stroke-width="1.5" opacity="1"/></g><g class="mark-text role-legend-label" pointer-events="none"><text text-anchor="start" transform="translate(16,9)" font-family="sans-serif" font-size="10px" fill="#000" opacity="1">Richard</text></g></g><path class="foreground" aria-hidden="true" d="" pointer-events="none" display="none"/></g><g transform="translate(0,91)"><path class="background" aria-hidden="true" d="M0,0h52.123046875v11h-52.123046875Z" pointer-events="none" opacity="1"/><g><g class="mark-symbol role-legend-symbol" pointer-events="none"><path transform="translate(6,6)" d="M-5,0L5,0" stroke="#ff9da6" stroke-width="1.5" opacity="1"/></g><g class="mark-text role-legend-label" pointer-events="none"><text text-anchor="start" transform="translate(16,9)" font-family="sans-serif" font-size="10px" fill="#000" opacity="1">Robert</text></g></g><path class="foreground" aria-hidden="true" d="" pointer-events="none" display="none"/></g><g transform="translate(0,104)"><path class="background" aria-hidden="true" d="M0,0h52.123046875v11h-52.123046875Z" pointer-events="none" opacity="1"/><g><g class="mark-symbol role-legend-symbol" pointer-events="none"><path transform="translate(6,6)" d="M-5,0L5,0" stroke="#9d755d" stroke-width="1.5" opacity="1"/></g><g class="mark-text role-legend-label" pointer-events="none"><text text-anchor="start" transform="translate(16,9)" font-family="sans-serif" font-size="10px" fill="#000" opacity="1">Thomas</text></g></g><path class="foreground" aria-hidden="true" d="" pointer-events="none" display="none"/></g><g transform="translate(0,117)"><path class="background" aria-hidden="true" d="M0,0h52.123046875v11h-52.123046875Z" pointer-events="none" opacity="1"/><g><g class="mark-symbol role-legend-symbol" pointer-events="none"><path transform="translate(6,6)" d="M-5,0L5,0" stroke="#bab0ac" stroke-width="1.5" opacity="1"/></g><g class="mark-text role-legend-label" pointer-events="none"><text text-anchor="start" transform="translate(16,9)" font-family="sans-serif" font-size="10px" fill="#000" opacity="1">William</text></g></g><path class="foreground" aria-hidden="true" d="" pointer-events="none" display="none"/></g></g></g><path class="foreground" aria-hidden="true" d="" pointer-events="none" display="none"/></g></g><g class="mark-text role-legend-title" pointer-events="none"><text text-anchor="start" transform="translate(0,9)" font-family="sans-serif" font-size="11px" font-weight="bold" fill="#000" opacity="1">Name</text></g></g><path class="foreground" aria-hidden="true" d="" pointer-events="none" display="none"/></g></g><g class="mark-group role-title"><g transform="translate(300,-22)"><path class="background" aria-hidden="true" d="M0,0h0v0h0Z" pointer-events="none"/><g><g class="mark-text role-title-text" role="graphics-symbol" aria-roledescription="title" aria-label="Title text 'Most Popular Male Names in America'" pointer-events="none"><text text-anchor="middle" transform="translate(0,10)" font-family="sans-serif" font-size="13px" font-weight="bold" fill="#000" opacity="1">Most Popular Male Names in America</text></g></g><path class="foreground" aria-hidden="true" d="" pointer-events="none" display="none"/></g></g></g><path class="foreground" aria-hidden="true" d="" display="none"/></g></g></g></svg>